<svg version="1.1" viewBox="0.0 0.0 960.0 540.0" fill="none" stroke="none" stroke-linecap="square" stroke-miterlimit="10" xmlns:xlink="http://www.w3.org/1999/xlink" xmlns="http://www.w3.org/2000/svg"><clipPath id="gcddd36cdc3_0_0.0"><path d="m0 0l960.0 0l0 540.0l-960.0 0l0 -540.0z" clip-rule="nonzero"/></clipPath><g clip-path="url(#gcddd36cdc3_0_0.0)"><path fill="#000000" fill-opacity="0.0" d="m0 0l960.0 0l0 540.0l-960.0 0z" fill-rule="evenodd"/><path fill="#1c4587" d="m399.36917 128.3202l0 0c0 -12.828659 10.399689 -23.22834 23.228363 -23.22834l115.08661 0c6.1605225 0 12.068787 2.4472656 16.424927 6.803421c4.35614 4.356163 6.803406 10.264381 6.803406 16.42492l0 0l0 0c0 12.828659 -10.399658 23.228348 -23.228333 23.228348l-115.08661 0c-12.828674 0 -23.228363 -10.399689 -23.228363 -23.228348z" fill-rule="evenodd"/><path stroke="#1c4587" stroke-width="1.0" stroke-linejoin="round" stroke-linecap="butt" d="m399.36917 128.3202l0 0c0 -12.828659 10.399689 -23.22834 23.228363 -23.22834l115.08661 0c6.1605225 0 12.068787 2.4472656 16.424927 6.803421c4.35614 4.356163 6.803406 10.264381 6.803406 16.42492l0 0l0 0c0 12.828659 -10.399658 23.228348 -23.228333 23.228348l-115.08661 0c-12.828674 0 -23.228363 -10.399689 -23.228363 -23.228348z" fill-rule="evenodd"/><path fill="#ffffff" d="m445.02502 131.41208l1.78125 -9.4375l2.734375 0l-2.953125 13.265625l-2.75 0l-2.15625 -8.875l-2.15625 8.875l-2.75 0l-2.953125 -13.265625l2.734375 0l1.796875 9.421875l2.171875 -9.421875l2.328125 0l2.171875 9.4375zm5.1106873 -1.1875q0 -1.46875 0.5625 -2.609375q0.578125 -1.15625 1.640625 -1.78125q1.0625 -0.625 2.453125 -0.625q2.0 0 3.265625 1.21875q1.265625 1.21875 1.40625 3.3125l0.015625 0.671875q0 2.265625 -1.265625 3.640625q-1.265625 1.375 -3.40625 1.375q-2.125 0 -3.40625 -1.359375q-1.265625 -1.375 -1.265625 -3.734375l0 -0.109375zm2.640625 0.1875q0 1.40625 0.53125 2.15625q0.53125 0.734375 1.515625 0.734375q0.953125 0 1.484375 -0.734375q0.546875 -0.734375 0.546875 -2.34375q0 -1.375 -0.546875 -2.125q-0.53125 -0.765625 -1.515625 -0.765625q-0.953125 0 -1.484375 0.75q-0.53125 0.75 -0.53125 2.328125zm13.861298 -2.5625q-0.53125 -0.0625 -0.9375 -0.0625q-1.5 0 -1.96875 1.0l0 6.453125l-2.625 0l0 -9.859375l2.484375 0l0.078125 1.171875q0.78125 -1.34375 2.1875 -1.34375q0.4375 0 0.828125 0.109375l-0.046875 2.53125zm4.851654 3.4375l-0.953125 0.953125l0 3.0l-2.625 0l0 -14.0l2.625 0l0 7.765625l0.515625 -0.65625l2.515625 -2.96875l3.171875 0l-3.5625 4.109375l3.859375 5.75l-3.015625 0l-2.53125 -3.953125zm11.71579 1.234375q0 -0.484375 -0.484375 -0.765625q-0.46875 -0.28125 -1.515625 -0.5q-3.53125 -0.734375 -3.53125 -2.984375q0 -1.3125 1.09375 -2.1875q1.09375 -0.875 2.84375 -0.875q1.875 0 3.0 0.890625q1.125 0.875 1.125 2.28125l-2.625 0q0 -0.5625 -0.375 -0.921875q-0.359375 -0.375 -1.125 -0.375q-0.671875 0 -1.03125 0.296875q-0.359375 0.296875 -0.359375 0.765625q0 0.4375 0.40625 0.703125q0.421875 0.265625 1.40625 0.46875q0.984375 0.1875 1.65625 0.4375q2.078125 0.765625 2.078125 2.65625q0 1.34375 -1.15625 2.1875q-1.15625 0.828125 -2.984375 0.828125q-1.234375 0 -2.203125 -0.4375q-0.953125 -0.453125 -1.5 -1.21875q-0.546875 -0.765625 -0.546875 -1.671875l2.484375 0q0.046875 0.703125 0.53125 1.078125q0.484375 0.375 1.28125 0.375q0.765625 0 1.140625 -0.28125q0.390625 -0.296875 0.390625 -0.75zm13.139191 -2.125q0 2.28125 -1.046875 3.65625q-1.03125 1.375 -2.78125 1.375q-1.5 0 -2.421875 -1.046875l0 4.65625l-2.625 0l0 -13.65625l2.4375 0l0.09375 0.96875q0.953125 -1.140625 2.5 -1.140625q1.8125 0 2.828125 1.34375q1.015625 1.34375 1.015625 3.71875l0 0.125zm-2.640625 -0.1875q0 -1.375 -0.484375 -2.109375q-0.484375 -0.75 -1.421875 -0.75q-1.234375 0 -1.703125 0.9375l0 4.03125q0.484375 0.984375 1.71875 0.984375q1.890625 0 1.890625 -3.09375zm9.971985 5.03125q-0.171875 -0.359375 -0.265625 -0.890625q-0.953125 1.078125 -2.484375 1.078125q-1.453125 0 -2.40625 -0.84375q-0.9375 -0.84375 -0.9375 -2.109375q0 -1.578125 1.15625 -2.40625q1.15625 -0.84375 3.359375 -0.84375l1.203125 0l0 -0.578125q0 -0.671875 -0.359375 -1.078125q-0.34375 -0.421875 -1.09375 -0.421875q-0.65625 0 -1.046875 0.328125q-0.375 0.3125 -0.375 0.875l-2.625 0q0 -0.859375 0.515625 -1.578125q0.53125 -0.734375 1.5 -1.140625q0.96875 -0.421875 2.171875 -0.421875q1.8125 0 2.875 0.921875q1.078125 0.90625 1.078125 2.5625l0 4.265625q0.015625 1.40625 0.390625 2.125l0 0.15625l-2.65625 0zm-2.171875 -1.828125q0.578125 0 1.0625 -0.25q0.5 -0.265625 0.734375 -0.703125l0 -1.703125l-0.984375 0q-1.96875 0 -2.09375 1.375l-0.015625 0.15625q0 0.484375 0.34375 0.8125q0.34375 0.3125 0.953125 0.3125zm10.564728 -0.109375q0.734375 0 1.1875 -0.390625q0.453125 -0.40625 0.46875 -1.078125l2.46875 0q0 1.0 -0.546875 1.84375q-0.53125 0.828125 -1.46875 1.296875q-0.9375 0.453125 -2.0625 0.453125q-2.109375 0 -3.34375 -1.34375q-1.21875 -1.34375 -1.21875 -3.71875l0 -0.171875q0 -2.28125 1.21875 -3.625q1.21875 -1.359375 3.328125 -1.359375q1.84375 0 2.953125 1.046875q1.125 1.046875 1.140625 2.796875l-2.46875 0q-0.015625 -0.765625 -0.46875 -1.234375q-0.453125 -0.484375 -1.203125 -0.484375q-0.921875 0 -1.390625 0.671875q-0.46875 0.671875 -0.46875 2.171875l0 0.265625q0 1.53125 0.453125 2.203125q0.46875 0.65625 1.421875 0.65625zm10.166443 2.125q-2.171875 0 -3.53125 -1.328125q-1.359375 -1.34375 -1.359375 -3.546875l0 -0.265625q0 -1.484375 0.5625 -2.640625q0.578125 -1.171875 1.625 -1.796875q1.0625 -0.640625 2.40625 -0.640625q2.03125 0 3.1875 1.28125q1.15625 1.265625 1.15625 3.609375l0 1.0625l-6.265625 0q0.125 0.96875 0.765625 1.5625q0.640625 0.578125 1.625 0.578125q1.515625 0 2.375 -1.109375l1.296875 1.453125q-0.59375 0.84375 -1.609375 1.3125q-1.0 0.46875 -2.234375 0.46875zm-0.296875 -8.09375q-0.78125 0 -1.28125 0.53125q-0.484375 0.53125 -0.609375 1.515625l3.65625 0l0 -0.21875q-0.015625 -0.875 -0.484375 -1.34375q-0.453125 -0.484375 -1.28125 -0.484375z" fill-rule="nonzero"/><path fill="#0c58d3" d="m585.2875 222.77705l0 0c0 -12.828674 10.399658 -23.228348 23.228333 -23.228348l115.08661 0c6.1605225 0 12.068787 2.4472656 16.424927 6.803421c4.35614 4.3561554 6.803406 10.264374 6.803406 16.424927l0 0l0 0c0 12.828659 -10.399658 23.228333 -23.228333 23.228333l-115.08661 0c-12.828674 0 -23.228333 -10.399673 -23.228333 -23.228333z" fill-rule="evenodd"/><path stroke="#1155cc" stroke-width="1.0" stroke-linejoin="round" stroke-linecap="butt" d="m585.2875 222.77705l0 0c0 -12.828674 10.399658 -23.228348 23.228333 -23.228348l115.08661 0c6.1605225 0 12.068787 2.4472656 16.424927 6.803421c4.35614 4.3561554 6.803406 10.264374 6.803406 16.424927l0 0l0 0c0 12.828659 -10.399658 23.228333 -23.228333 23.228333l-115.08661 0c-12.828674 0 -23.228333 -10.399673 -23.228333 -23.228333z" fill-rule="evenodd"/><path fill="#ffffff" d="m641.825 224.5733l0 4.34375l-2.546875 0l0 -12.3125l4.8125 0q1.390625 0 2.4375 0.515625q1.0625 0.5 1.625 1.4375q0.5625 0.921875 0.5625 2.125q0 1.796875 -1.234375 2.84375q-1.234375 1.046875 -3.4375 1.046875l-2.21875 0zm0 -2.046875l2.265625 0q1.0 0 1.53125 -0.46875q0.53125 -0.484375 0.53125 -1.359375q0 -0.90625 -0.53125 -1.46875q-0.53125 -0.5625 -1.46875 -0.578125l-2.328125 0l0 3.875zm13.614502 -0.46875q-0.5 -0.0625 -0.875 -0.0625q-1.390625 0 -1.8125 0.9375l0 5.984375l-2.453125 0l0 -9.15625l2.3125 0l0.0625 1.09375q0.734375 -1.265625 2.046875 -1.265625q0.40625 0 0.765625 0.109375l-0.046875 2.359375zm0.50006104 2.203125q0 -1.375 0.515625 -2.4375q0.53125 -1.0625 1.515625 -1.640625q0.984375 -0.59375 2.28125 -0.59375q1.859375 0 3.03125 1.140625q1.171875 1.125 1.3125 3.078125l0.015625 0.625q0 2.109375 -1.1875 3.390625q-1.171875 1.265625 -3.15625 1.265625q-1.96875 0 -3.15625 -1.265625q-1.171875 -1.28125 -1.171875 -3.453125l0 -0.109375zm2.4375 0.171875q0 1.296875 0.484375 2.0q0.5 0.6875 1.421875 0.6875q0.875 0 1.375 -0.6875q0.5 -0.6875 0.5 -2.171875q0 -1.28125 -0.5 -1.984375q-0.5 -0.703125 -1.40625 -0.703125q-0.890625 0 -1.390625 0.703125q-0.484375 0.6875 -0.484375 2.15625zm10.329102 -4.671875l0 9.65625q0 1.515625 -0.8125 2.359375q-0.796875 0.84375 -2.3125 0.84375q-0.640625 0 -1.203125 -0.15625l0 -1.9375q0.4375 0.078125 0.765625 0.078125q1.109375 0 1.109375 -1.171875l0 -9.671875l2.453125 0zm-2.65625 -2.375q0 -0.546875 0.359375 -0.890625q0.375 -0.359375 1.015625 -0.359375q0.640625 0 1.0 0.359375q0.375 0.34375 0.375 0.890625q0 0.5625 -0.375 0.921875q-0.375 0.359375 -1.0 0.359375q-0.609375 0 -1.0 -0.359375q-0.375 -0.359375 -0.375 -0.921875zm8.782471 11.703125q-2.015625 0 -3.28125 -1.234375q-1.265625 -1.234375 -1.265625 -3.296875l0 -0.234375q0 -1.375 0.53125 -2.453125q0.53125 -1.09375 1.5 -1.6875q0.984375 -0.59375 2.234375 -0.59375q1.890625 0 2.96875 1.1875q1.078125 1.1875 1.078125 3.359375l0 1.0l-5.828125 0q0.109375 0.890625 0.703125 1.4375q0.609375 0.546875 1.515625 0.546875q1.40625 0 2.203125 -1.03125l1.203125 1.34375q-0.546875 0.78125 -1.484375 1.21875q-0.9375 0.4375 -2.078125 0.4375zm-0.28125 -7.515625q-0.734375 0 -1.1875 0.5q-0.453125 0.484375 -0.578125 1.390625l3.40625 0l0 -0.1875q-0.015625 -0.8125 -0.4375 -1.25q-0.421875 -0.453125 -1.203125 -0.453125zm9.241333 5.546875q0.671875 0 1.09375 -0.375q0.421875 -0.375 0.4375 -1.0l2.296875 0q0 0.9375 -0.5 1.71875q-0.5 0.765625 -1.375 1.203125q-0.859375 0.421875 -1.921875 0.421875q-1.953125 0 -3.09375 -1.25q-1.125 -1.25 -1.125 -3.453125l0 -0.15625q0 -2.109375 1.125 -3.375q1.125 -1.265625 3.078125 -1.265625q1.71875 0 2.75 0.984375q1.046875 0.96875 1.0625 2.59375l-2.296875 0q-0.015625 -0.703125 -0.4375 -1.140625q-0.421875 -0.453125 -1.109375 -0.453125q-0.859375 0 -1.296875 0.625q-0.4375 0.625 -0.4375 2.015625l0 0.25q0 1.421875 0.421875 2.046875q0.4375 0.609375 1.328125 0.609375zm8.145752 -9.609375l0 2.25l1.578125 0l0 1.796875l-1.578125 0l0 4.5625q0 0.515625 0.1875 0.734375q0.203125 0.21875 0.765625 0.21875q0.40625 0 0.71875 -0.0625l0 1.859375q-0.71875 0.21875 -1.484375 0.21875q-2.578125 0 -2.625 -2.59375l0 -4.9375l-1.34375 0l0 -1.796875l1.34375 0l0 -2.25l2.4375 0z" fill-rule="nonzero"/><path fill="#1155cc" d="m213.4509 222.77705l0 0c0 -12.828674 10.399689 -23.228348 23.228348 -23.228348l115.086624 0c6.1605225 0 12.068756 2.4472656 16.424896 6.803421c4.3561707 4.3561554 6.8034363 10.264374 6.8034363 16.424927l0 0l0 0c0 12.828659 -10.399689 23.228333 -23.228333 23.228333l-115.086624 0c-12.828659 0 -23.228348 -10.399673 -23.228348 -23.228333z" fill-rule="evenodd"/><path stroke="#1155cc" stroke-width="1.0" stroke-linejoin="round" stroke-linecap="butt" d="m213.4509 222.77705l0 0c0 -12.828674 10.399689 -23.228348 23.228348 -23.228348l115.086624 0c6.1605225 0 12.068756 2.4472656 16.424896 6.803421c4.3561707 4.3561554 6.8034363 10.264374 6.8034363 16.424927l0 0l0 0c0 12.828659 -10.399689 23.228333 -23.228333 23.228333l-115.086624 0c-12.828659 0 -23.228348 -10.399673 -23.228348 -23.228333z" fill-rule="evenodd"/><path fill="#ffffff" d="m269.98843 224.5733l0 4.34375l-2.546875 0l0 -12.3125l4.8125 0q1.390625 0 2.4375 0.515625q1.0625 0.5 1.625 1.4375q0.5625 0.921875 0.5625 2.125q0 1.796875 -1.234375 2.84375q-1.234375 1.046875 -3.4375 1.046875l-2.21875 0zm0 -2.046875l2.265625 0q1.0 0 1.53125 -0.46875q0.53125 -0.484375 0.53125 -1.359375q0 -0.90625 -0.53125 -1.46875q-0.53125 -0.5625 -1.46875 -0.578125l-2.328125 0l0 3.875zm13.614502 -0.46875q-0.5 -0.0625 -0.875 -0.0625q-1.390625 0 -1.8125 0.9375l0 5.984375l-2.453125 0l0 -9.15625l2.3125 0l0.0625 1.09375q0.734375 -1.265625 2.046875 -1.265625q0.40625 0 0.765625 0.109375l-0.046875 2.359375zm0.50006104 2.203125q0 -1.375 0.515625 -2.4375q0.53125 -1.0625 1.515625 -1.640625q0.984375 -0.59375 2.28125 -0.59375q1.859375 0 3.03125 1.140625q1.171875 1.125 1.3125 3.078125l0.015625 0.625q0 2.109375 -1.1875 3.390625q-1.171875 1.265625 -3.15625 1.265625q-1.96875 0 -3.15625 -1.265625q-1.171875 -1.28125 -1.171875 -3.453125l0 -0.109375zm2.4375 0.171875q0 1.296875 0.484375 2.0q0.5 0.6875 1.421875 0.6875q0.875 0 1.375 -0.6875q0.5 -0.6875 0.5 -2.171875q0 -1.28125 -0.5 -1.984375q-0.5 -0.703125 -1.40625 -0.703125q-0.890625 0 -1.390625 0.703125q-0.484375 0.6875 -0.484375 2.15625zm10.329071 -4.671875l0 9.65625q0 1.515625 -0.8125 2.359375q-0.796875 0.84375 -2.3125 0.84375q-0.640625 0 -1.203125 -0.15625l0 -1.9375q0.4375 0.078125 0.765625 0.078125q1.109375 0 1.109375 -1.171875l0 -9.671875l2.453125 0zm-2.65625 -2.375q0 -0.546875 0.359375 -0.890625q0.375 -0.359375 1.015625 -0.359375q0.640625 0 1.0 0.359375q0.375 0.34375 0.375 0.890625q0 0.5625 -0.375 0.921875q-0.375 0.359375 -1.0 0.359375q-0.609375 0 -1.0 -0.359375q-0.375 -0.359375 -0.375 -0.921875zm8.782501 11.703125q-2.015625 0 -3.28125 -1.234375q-1.265625 -1.234375 -1.265625 -3.296875l0 -0.234375q0 -1.375 0.53125 -2.453125q0.53125 -1.09375 1.5 -1.6875q0.984375 -0.59375 2.234375 -0.59375q1.890625 0 2.96875 1.1875q1.078125 1.1875 1.078125 3.359375l0 1.0l-5.828125 0q0.109375 0.890625 0.703125 1.4375q0.609375 0.546875 1.515625 0.546875q1.40625 0 2.203125 -1.03125l1.203125 1.34375q-0.546875 0.78125 -1.484375 1.21875q-0.9375 0.4375 -2.078125 0.4375zm-0.28125 -7.515625q-0.734375 0 -1.1875 0.5q-0.453125 0.484375 -0.578125 1.390625l3.40625 0l0 -0.1875q-0.015625 -0.8125 -0.4375 -1.25q-0.421875 -0.453125 -1.203125 -0.453125zm9.241333 5.546875q0.671875 0 1.09375 -0.375q0.421875 -0.375 0.4375 -1.0l2.296875 0q0 0.9375 -0.5 1.71875q-0.5 0.765625 -1.375 1.203125q-0.859375 0.421875 -1.921875 0.421875q-1.953125 0 -3.09375 -1.25q-1.125 -1.25 -1.125 -3.453125l0 -0.15625q0 -2.109375 1.125 -3.375q1.125 -1.265625 3.078125 -1.265625q1.71875 0 2.75 0.984375q1.046875 0.96875 1.0625 2.59375l-2.296875 0q-0.015625 -0.703125 -0.4375 -1.140625q-0.421875 -0.453125 -1.109375 -0.453125q-0.859375 0 -1.296875 0.625q-0.4375 0.625 -0.4375 2.015625l0 0.25q0 1.421875 0.421875 2.046875q0.4375 0.609375 1.328125 0.609375zm8.145721 -9.609375l0 2.25l1.578125 0l0 1.796875l-1.578125 0l0 4.5625q0 0.515625 0.1875 0.734375q0.203125 0.21875 0.765625 0.21875q0.40625 0 0.71875 -0.0625l0 1.859375q-0.71875 0.21875 -1.484375 0.21875q-2.578125 0 -2.625 -2.59375l0 -4.9375l-1.34375 0l0 -1.796875l1.34375 0l0 -2.25l2.4375 0z" fill-rule="nonzero"/><path fill="#3c78d8" d="m124.68227 317.2339l0 0c0 -12.828674 10.399689 -23.228363 23.228348 -23.228363l115.08661 0c6.160553 0 12.068756 2.4472656 16.424927 6.8034363c4.3561707 4.3561707 6.8034363 10.264374 6.8034363 16.424927l0 0l0 0c0 12.828674 -10.399689 23.228333 -23.228363 23.228333l-115.08661 0c-12.828659 0 -23.228348 -10.399658 -23.228348 -23.228333z" fill-rule="evenodd"/><path stroke="#3c78d8" stroke-width="1.0" stroke-linejoin="round" stroke-linecap="butt" d="m124.68227 317.2339l0 0c0 -12.828674 10.399689 -23.228363 23.228348 -23.228363l115.08661 0c6.160553 0 12.068756 2.4472656 16.424927 6.8034363c4.3561707 4.3561707 6.8034363 10.264374 6.8034363 16.424927l0 0l0 0c0 12.828674 -10.399689 23.228333 -23.228363 23.228333l-115.08661 0c-12.828659 0 -23.228348 -10.399658 -23.228348 -23.228333z" fill-rule="evenodd"/><path fill="#ffffff" d="m163.08673 323.09387l0 -11.375l3.5 0q1.5 0 2.6875 0.671875q1.1875 0.671875 1.84375 1.921875q0.671875 1.25 0.671875 2.828125l0 0.53125q0 1.578125 -0.65625 2.8125q-0.65625 1.234375 -1.84375 1.921875q-1.1875 0.671875 -2.671875 0.6875l-3.53125 0zm2.34375 -9.484375l0 7.59375l1.140625 0q1.375 0 2.09375 -0.890625q0.734375 -0.90625 0.75 -2.578125l0 -0.59375q0 -1.734375 -0.71875 -2.625q-0.71875 -0.90625 -2.109375 -0.90625l-1.15625 0zm11.8046875 9.640625q-1.859375 0 -3.03125 -1.140625q-1.171875 -1.140625 -1.171875 -3.046875l0 -0.21875q0 -1.265625 0.484375 -2.265625q0.5 -1.015625 1.40625 -1.546875q0.90625 -0.546875 2.0625 -0.546875q1.734375 0 2.71875 1.09375q1.0 1.09375 1.0 3.09375l0 0.921875l-5.375 0q0.109375 0.828125 0.65625 1.328125q0.546875 0.5 1.390625 0.5q1.3125 0 2.046875 -0.9375l1.109375 1.234375q-0.515625 0.71875 -1.390625 1.125q-0.859375 0.40625 -1.90625 0.40625zm-0.265625 -6.9375q-0.671875 0 -1.09375 0.453125q-0.40625 0.453125 -0.53125 1.296875l3.140625 0l0 -0.1875q-0.015625 -0.75 -0.40625 -1.15625q-0.390625 -0.40625 -1.109375 -0.40625zm9.6015625 4.4375q0 -0.40625 -0.421875 -0.640625q-0.40625 -0.25 -1.3125 -0.4375q-3.015625 -0.625 -3.015625 -2.5625q0 -1.125 0.9375 -1.875q0.9375 -0.75 2.4375 -0.75q1.609375 0 2.578125 0.765625q0.96875 0.75 0.96875 1.953125l-2.265625 0q0 -0.484375 -0.3125 -0.796875q-0.3125 -0.3125 -0.96875 -0.3125q-0.578125 0 -0.890625 0.265625q-0.3125 0.25 -0.3125 0.640625q0 0.375 0.359375 0.609375q0.359375 0.234375 1.203125 0.40625q0.84375 0.15625 1.421875 0.375q1.78125 0.65625 1.78125 2.265625q0 1.15625 -1.0 1.875q-0.984375 0.71875 -2.546875 0.71875q-1.0625 0 -1.890625 -0.375q-0.828125 -0.390625 -1.296875 -1.046875q-0.46875 -0.65625 -0.46875 -1.421875l2.140625 0q0.03125 0.59375 0.4375 0.921875q0.421875 0.3125 1.125 0.3125q0.640625 0 0.96875 -0.234375q0.34375 -0.25 0.34375 -0.65625zm6.0234375 2.34375l-2.265625 0l0 -8.453125l2.265625 0l0 8.453125zm-2.390625 -10.640625q0 -0.515625 0.328125 -0.84375q0.34375 -0.328125 0.9375 -0.328125q0.578125 0 0.921875 0.328125q0.34375 0.328125 0.34375 0.84375q0 0.515625 -0.359375 0.84375q-0.34375 0.328125 -0.921875 0.328125q-0.5625 0 -0.90625 -0.328125q-0.34375 -0.328125 -0.34375 -0.84375zm3.9296875 6.34375q0 -1.9375 0.921875 -3.125q0.921875 -1.1875 2.5 -1.1875q1.390625 0 2.15625 0.953125l0.09375 -0.796875l2.046875 0l0 8.171875q0 1.109375 -0.5 1.921875q-0.5 0.828125 -1.421875 1.25q-0.90625 0.4375 -2.140625 0.4375q-0.921875 0 -1.8125 -0.375q-0.875 -0.359375 -1.328125 -0.953125l1.0 -1.375q0.84375 0.953125 2.046875 0.953125q0.890625 0 1.390625 -0.484375q0.5 -0.484375 0.5 -1.375l0 -0.453125q-0.78125 0.890625 -2.046875 0.890625q-1.53125 0 -2.46875 -1.1875q-0.9375 -1.203125 -0.9375 -3.171875l0 -0.09375zm2.25 0.171875q0 1.140625 0.453125 1.796875q0.46875 0.65625 1.28125 0.65625q1.03125 0 1.46875 -0.78125l0 -3.546875q-0.453125 -0.78125 -1.453125 -0.78125q-0.8125 0 -1.28125 0.671875q-0.46875 0.65625 -0.46875 1.984375zm9.2890625 -4.328125l0.0625 0.96875q0.90625 -1.125 2.4375 -1.125q1.34375 0 2.0 0.796875q0.65625 0.78125 0.671875 2.34375l0 5.46875l-2.265625 0l0 -5.40625q0 -0.71875 -0.3125 -1.046875q-0.3125 -0.328125 -1.03125 -0.328125q-0.953125 0 -1.4375 0.8125l0 5.96875l-2.25 0l0 -8.453125l2.125 0zm13.3515625 4.4375l0 4.015625l-2.34375 0l0 -11.375l4.4375 0q1.28125 0 2.25 0.46875q0.984375 0.46875 1.5 1.328125q0.53125 0.859375 0.53125 1.96875q0 1.671875 -1.15625 2.640625q-1.140625 0.953125 -3.15625 0.953125l-2.0625 0zm0 -1.890625l2.09375 0q0.9375 0 1.421875 -0.4375q0.484375 -0.4375 0.484375 -1.25q0 -0.84375 -0.5 -1.359375q-0.484375 -0.515625 -1.34375 -0.53125l-2.15625 0l0 3.578125zm12.640625 5.90625q-0.15625 -0.3125 -0.21875 -0.765625q-0.828125 0.921875 -2.140625 0.921875q-1.234375 0 -2.0625 -0.71875q-0.8125 -0.71875 -0.8125 -1.8125q0 -1.34375 1.0 -2.0625q1.0 -0.71875 2.875 -0.734375l1.046875 0l0 -0.484375q0 -0.578125 -0.3125 -0.921875q-0.296875 -0.359375 -0.9375 -0.359375q-0.578125 0 -0.90625 0.28125q-0.3125 0.265625 -0.3125 0.734375l-2.265625 0q0 -0.734375 0.453125 -1.359375q0.453125 -0.625 1.28125 -0.96875q0.828125 -0.359375 1.859375 -0.359375q1.5625 0 2.484375 0.78125q0.921875 0.78125 0.921875 2.203125l0 3.671875q0 1.203125 0.328125 1.8125l0 0.140625l-2.28125 0zm-1.859375 -1.578125q0.5 0 0.921875 -0.21875q0.421875 -0.21875 0.625 -0.59375l0 -1.453125l-0.84375 0q-1.703125 0 -1.8125 1.171875l0 0.125q0 0.421875 0.296875 0.703125q0.296875 0.265625 0.8125 0.265625zm8.25 -8.953125l0 2.078125l1.4375 0l0 1.65625l-1.4375 0l0 4.21875q0 0.46875 0.171875 0.671875q0.1875 0.203125 0.6875 0.203125q0.375 0 0.671875 -0.0625l0 1.71875q-0.671875 0.203125 -1.375 0.203125q-2.375 0 -2.421875 -2.40625l0 -4.546875l-1.234375 0l0 -1.65625l1.234375 0l0 -2.078125l2.265625 0zm4.90625 3.0q0.890625 -1.078125 2.25 -1.078125q2.75 0 2.796875 3.1875l0 5.421875l-2.265625 0l0 -5.359375q0 -0.71875 -0.3125 -1.0625q-0.3125 -0.359375 -1.03125 -0.359375q-1.0 0 -1.4375 0.765625l0 6.015625l-2.265625 0l0 -12.0l2.265625 0l0 4.46875z" fill-rule="nonzero"/><path fill="#3c78d8" d="m302.2195 317.2339l0 0c0 -12.828674 10.399689 -23.228363 23.228363 -23.228363l115.08661 0c6.160553 0 12.068756 2.4472656 16.424927 6.8034363c4.3561707 4.3561707 6.8034363 10.264374 6.8034363 16.424927l0 0l0 0c0 12.828674 -10.399689 23.228333 -23.228363 23.228333l-115.08661 0c-12.828674 0 -23.228363 -10.399658 -23.228363 -23.228333z" fill-rule="evenodd"/><path stroke="#3c78d8" stroke-width="1.0" stroke-linejoin="round" stroke-linecap="butt" d="m302.2195 317.2339l0 0c0 -12.828674 10.399689 -23.228363 23.228363 -23.228363l115.08661 0c6.160553 0 12.068756 2.4472656 16.424927 6.8034363c4.3561707 4.3561707 6.8034363 10.264374 6.8034363 16.424927l0 0l0 0c0 12.828674 -10.399689 23.228333 -23.228363 23.228333l-115.08661 0c-12.828674 0 -23.228363 -10.399658 -23.228363 -23.228333z" fill-rule="evenodd"/><path fill="#ffffff" d="m340.624 323.09387l0 -11.375l3.5 0q1.5 0 2.6875 0.671875q1.1875 0.671875 1.84375 1.921875q0.671875 1.25 0.671875 2.828125l0 0.53125q0 1.578125 -0.65625 2.8125q-0.65625 1.234375 -1.84375 1.921875q-1.1875 0.671875 -2.671875 0.6875l-3.53125 0zm2.34375 -9.484375l0 7.59375l1.140625 0q1.375 0 2.09375 -0.890625q0.734375 -0.90625 0.75 -2.578125l0 -0.59375q0 -1.734375 -0.71875 -2.625q-0.71875 -0.90625 -2.109375 -0.90625l-1.15625 0zm11.8046875 9.640625q-1.859375 0 -3.03125 -1.140625q-1.171875 -1.140625 -1.171875 -3.046875l0 -0.21875q0 -1.265625 0.484375 -2.265625q0.5 -1.015625 1.40625 -1.546875q0.90625 -0.546875 2.0625 -0.546875q1.734375 0 2.71875 1.09375q1.0 1.09375 1.0 3.09375l0 0.921875l-5.375 0q0.109375 0.828125 0.65625 1.328125q0.546875 0.5 1.390625 0.5q1.3125 0 2.046875 -0.9375l1.109375 1.234375q-0.515625 0.71875 -1.390625 1.125q-0.859375 0.40625 -1.90625 0.40625zm-0.265625 -6.9375q-0.671875 0 -1.09375 0.453125q-0.40625 0.453125 -0.53125 1.296875l3.140625 0l0 -0.1875q-0.015625 -0.75 -0.40625 -1.15625q-0.390625 -0.40625 -1.109375 -0.40625zm9.6015625 4.4375q0 -0.40625 -0.421875 -0.640625q-0.40625 -0.25 -1.3125 -0.4375q-3.015625 -0.625 -3.015625 -2.5625q0 -1.125 0.9375 -1.875q0.9375 -0.75 2.4375 -0.75q1.609375 0 2.578125 0.765625q0.96875 0.75 0.96875 1.953125l-2.265625 0q0 -0.484375 -0.3125 -0.796875q-0.3125 -0.3125 -0.96875 -0.3125q-0.578125 0 -0.890625 0.265625q-0.3125 0.25 -0.3125 0.640625q0 0.375 0.359375 0.609375q0.359375 0.234375 1.203125 0.40625q0.84375 0.15625 1.421875 0.375q1.78125 0.65625 1.78125 2.265625q0 1.15625 -1.0 1.875q-0.984375 0.71875 -2.546875 0.71875q-1.0625 0 -1.890625 -0.375q-0.828125 -0.390625 -1.296875 -1.046875q-0.46875 -0.65625 -0.46875 -1.421875l2.140625 0q0.03125 0.59375 0.4375 0.921875q0.421875 0.3125 1.125 0.3125q0.640625 0 0.96875 -0.234375q0.34375 -0.25 0.34375 -0.65625zm6.0234375 2.34375l-2.265625 0l0 -8.453125l2.265625 0l0 8.453125zm-2.390625 -10.640625q0 -0.515625 0.328125 -0.84375q0.34375 -0.328125 0.9375 -0.328125q0.578125 0 0.921875 0.328125q0.34375 0.328125 0.34375 0.84375q0 0.515625 -0.359375 0.84375q-0.34375 0.328125 -0.921875 0.328125q-0.5625 0 -0.90625 -0.328125q-0.34375 -0.328125 -0.34375 -0.84375zm3.9296875 6.34375q0 -1.9375 0.921875 -3.125q0.921875 -1.1875 2.5 -1.1875q1.390625 0 2.15625 0.953125l0.09375 -0.796875l2.046875 0l0 8.171875q0 1.109375 -0.5 1.921875q-0.5 0.828125 -1.421875 1.25q-0.90625 0.4375 -2.140625 0.4375q-0.921875 0 -1.8125 -0.375q-0.875 -0.359375 -1.328125 -0.953125l1.0 -1.375q0.84375 0.953125 2.046875 0.953125q0.890625 0 1.390625 -0.484375q0.5 -0.484375 0.5 -1.375l0 -0.453125q-0.78125 0.890625 -2.046875 0.890625q-1.53125 0 -2.46875 -1.1875q-0.9375 -1.203125 -0.9375 -3.171875l0 -0.09375zm2.25 0.171875q0 1.140625 0.453125 1.796875q0.46875 0.65625 1.28125 0.65625q1.03125 0 1.46875 -0.78125l0 -3.546875q-0.453125 -0.78125 -1.453125 -0.78125q-0.8125 0 -1.28125 0.671875q-0.46875 0.65625 -0.46875 1.984375zm9.2890625 -4.328125l0.0625 0.96875q0.90625 -1.125 2.4375 -1.125q1.34375 0 2.0 0.796875q0.65625 0.78125 0.671875 2.34375l0 5.46875l-2.265625 0l0 -5.40625q0 -0.71875 -0.3125 -1.046875q-0.3125 -0.328125 -1.03125 -0.328125q-0.953125 0 -1.4375 0.8125l0 5.96875l-2.25 0l0 -8.453125l2.125 0zm13.3515625 4.4375l0 4.015625l-2.34375 0l0 -11.375l4.4375 0q1.28125 0 2.25 0.46875q0.984375 0.46875 1.5 1.328125q0.53125 0.859375 0.53125 1.96875q0 1.671875 -1.15625 2.640625q-1.140625 0.953125 -3.15625 0.953125l-2.0625 0zm0 -1.890625l2.09375 0q0.9375 0 1.421875 -0.4375q0.484375 -0.4375 0.484375 -1.25q0 -0.84375 -0.5 -1.359375q-0.484375 -0.515625 -1.34375 -0.53125l-2.15625 0l0 3.578125zm12.640625 5.90625q-0.15625 -0.3125 -0.21875 -0.765625q-0.828125 0.921875 -2.140625 0.921875q-1.234375 0 -2.0625 -0.71875q-0.8125 -0.71875 -0.8125 -1.8125q0 -1.34375 1.0 -2.0625q1.0 -0.71875 2.875 -0.734375l1.046875 0l0 -0.484375q0 -0.578125 -0.3125 -0.921875q-0.296875 -0.359375 -0.9375 -0.359375q-0.578125 0 -0.90625 0.28125q-0.3125 0.265625 -0.3125 0.734375l-2.265625 0q0 -0.734375 0.453125 -1.359375q0.453125 -0.625 1.28125 -0.96875q0.828125 -0.359375 1.859375 -0.359375q1.5625 0 2.484375 0.78125q0.921875 0.78125 0.921875 2.203125l0 3.671875q0 1.203125 0.328125 1.8125l0 0.140625l-2.28125 0zm-1.859375 -1.578125q0.5 0 0.921875 -0.21875q0.421875 -0.21875 0.625 -0.59375l0 -1.453125l-0.84375 0q-1.703125 0 -1.8125 1.171875l0 0.125q0 0.421875 0.296875 0.703125q0.296875 0.265625 0.8125 0.265625zm8.25 -8.953125l0 2.078125l1.4375 0l0 1.65625l-1.4375 0l0 4.21875q0 0.46875 0.171875 0.671875q0.1875 0.203125 0.6875 0.203125q0.375 0 0.671875 -0.0625l0 1.71875q-0.671875 0.203125 -1.375 0.203125q-2.375 0 -2.421875 -2.40625l0 -4.546875l-1.234375 0l0 -1.65625l1.234375 0l0 -2.078125l2.265625 0zm4.90625 3.0q0.890625 -1.078125 2.25 -1.078125q2.75 0 2.796875 3.1875l0 5.421875l-2.265625 0l0 -5.359375q0 -0.71875 -0.3125 -1.0625q-0.3125 -0.359375 -1.03125 -0.359375q-1.0 0 -1.4375 0.765625l0 6.015625l-2.265625 0l0 -12.0l2.265625 0l0 4.46875z" fill-rule="nonzero"/><path fill="#3c78d8" d="m496.51953 317.2339l0 0c0 -12.828674 10.399689 -23.228363 23.228333 -23.228363l115.08661 0c6.1605835 0 12.068787 2.4472656 16.424927 6.8034363c4.356201 4.3561707 6.803467 10.264374 6.803467 16.424927l0 0l0 0c0 12.828674 -10.399719 23.228333 -23.228394 23.228333l-115.08661 0c-12.828644 0 -23.228333 -10.399658 -23.228333 -23.228333z" fill-rule="evenodd"/><path stroke="#3c78d8" stroke-width="1.0" stroke-linejoin="round" stroke-linecap="butt" d="m496.51953 317.2339l0 0c0 -12.828674 10.399689 -23.228363 23.228333 -23.228363l115.08661 0c6.1605835 0 12.068787 2.4472656 16.424927 6.8034363c4.356201 4.3561707 6.803467 10.264374 6.803467 16.424927l0 0l0 0c0 12.828674 -10.399719 23.228333 -23.228394 23.228333l-115.08661 0c-12.828644 0 -23.228333 -10.399658 -23.228333 -23.228333z" fill-rule="evenodd"/><path fill="#ffffff" d="m532.9318 323.09387l0 -11.375l3.5 0q1.5 0 2.6875 0.671875q1.1875 0.671875 1.84375 1.921875q0.671875 1.25 0.671875 2.828125l0 0.53125q0 1.578125 -0.65625 2.8125q-0.65625 1.234375 -1.84375 1.921875q-1.1875 0.671875 -2.671875 0.6875l-3.53125 0zm2.34375 -9.484375l0 7.59375l1.140625 0q1.375 0 2.09375 -0.890625q0.734375 -0.90625 0.75 -2.578125l0 -0.59375q0 -1.734375 -0.71875 -2.625q-0.71875 -0.90625 -2.109375 -0.90625l-1.15625 0zm11.8046875 9.640625q-1.859375 0 -3.03125 -1.140625q-1.171875 -1.140625 -1.171875 -3.046875l0 -0.21875q0 -1.265625 0.484375 -2.265625q0.5 -1.015625 1.40625 -1.546875q0.90625 -0.546875 2.0625 -0.546875q1.734375 0 2.71875 1.09375q1.0 1.09375 1.0 3.09375l0 0.921875l-5.375 0q0.109375 0.828125 0.65625 1.328125q0.546875 0.5 1.390625 0.5q1.3125 0 2.046875 -0.9375l1.109375 1.234375q-0.515625 0.71875 -1.390625 1.125q-0.859375 0.40625 -1.90625 0.40625zm-0.265625 -6.9375q-0.671875 0 -1.09375 0.453125q-0.40625 0.453125 -0.53125 1.296875l3.140625 0l0 -0.1875q-0.015625 -0.75 -0.40625 -1.15625q-0.390625 -0.40625 -1.109375 -0.40625zm9.6015625 4.4375q0 -0.40625 -0.421875 -0.640625q-0.40625 -0.25 -1.3125 -0.4375q-3.015625 -0.625 -3.015625 -2.5625q0 -1.125 0.9375 -1.875q0.9375 -0.75 2.4375 -0.75q1.609375 0 2.578125 0.765625q0.96875 0.75 0.96875 1.953125l-2.265625 0q0 -0.484375 -0.3125 -0.796875q-0.3125 -0.3125 -0.96875 -0.3125q-0.578125 0 -0.890625 0.265625q-0.3125 0.25 -0.3125 0.640625q0 0.375 0.359375 0.609375q0.359375 0.234375 1.203125 0.40625q0.84375 0.15625 1.421875 0.375q1.78125 0.65625 1.78125 2.265625q0 1.15625 -1.0 1.875q-0.984375 0.71875 -2.546875 0.71875q-1.0625 0 -1.890625 -0.375q-0.828125 -0.390625 -1.296875 -1.046875q-0.46875 -0.65625 -0.46875 -1.421875l2.140625 0q0.03125 0.59375 0.4375 0.921875q0.421875 0.3125 1.125 0.3125q0.640625 0 0.96875 -0.234375q0.34375 -0.25 0.34375 -0.65625zm6.0234375 2.34375l-2.265625 0l0 -8.453125l2.265625 0l0 8.453125zm-2.390625 -10.640625q0 -0.515625 0.328125 -0.84375q0.34375 -0.328125 0.9375 -0.328125q0.578125 0 0.921875 0.328125q0.34375 0.328125 0.34375 0.84375q0 0.515625 -0.359375 0.84375q-0.34375 0.328125 -0.921875 0.328125q-0.5625 0 -0.90625 -0.328125q-0.34375 -0.328125 -0.34375 -0.84375zm3.9296875 6.34375q0 -1.9375 0.921875 -3.125q0.921875 -1.1875 2.5 -1.1875q1.390625 0 2.15625 0.953125l0.09375 -0.796875l2.046875 0l0 8.171875q0 1.109375 -0.5 1.921875q-0.5 0.828125 -1.421875 1.25q-0.90625 0.4375 -2.140625 0.4375q-0.921875 0 -1.8125 -0.375q-0.875 -0.359375 -1.328125 -0.953125l1.0 -1.375q0.84375 0.953125 2.046875 0.953125q0.890625 0 1.390625 -0.484375q0.5 -0.484375 0.5 -1.375l0 -0.453125q-0.78125 0.890625 -2.046875 0.890625q-1.53125 0 -2.46875 -1.1875q-0.9375 -1.203125 -0.9375 -3.171875l0 -0.09375zm2.25 0.171875q0 1.140625 0.453125 1.796875q0.46875 0.65625 1.28125 0.65625q1.03125 0 1.46875 -0.78125l0 -3.546875q-0.453125 -0.78125 -1.453125 -0.78125q-0.8125 0 -1.28125 0.671875q-0.46875 0.65625 -0.46875 1.984375zm9.2890625 -4.328125l0.0625 0.96875q0.90625 -1.125 2.4375 -1.125q1.34375 0 2.0 0.796875q0.65625 0.78125 0.671875 2.34375l0 5.46875l-2.265625 0l0 -5.40625q0 -0.71875 -0.3125 -1.046875q-0.3125 -0.328125 -1.03125 -0.328125q-0.953125 0 -1.4375 0.8125l0 5.96875l-2.25 0l0 -8.453125l2.125 0zm17.335938 4.4375l0 4.015625l-2.34375 0l0 -11.375l4.4375 0q1.28125 0 2.25 0.46875q0.984375 0.46875 1.5 1.328125q0.53125 0.859375 0.53125 1.96875q0 1.671875 -1.15625 2.640625q-1.140625 0.953125 -3.15625 0.953125l-2.0625 0zm0 -1.890625l2.09375 0q0.9375 0 1.421875 -0.4375q0.484375 -0.4375 0.484375 -1.25q0 -0.84375 -0.5 -1.359375q-0.484375 -0.515625 -1.34375 -0.53125l-2.15625 0l0 3.578125zm12.640625 5.90625q-0.15625 -0.3125 -0.21875 -0.765625q-0.828125 0.921875 -2.140625 0.921875q-1.234375 0 -2.0625 -0.71875q-0.8125 -0.71875 -0.8125 -1.8125q0 -1.34375 1.0 -2.0625q1.0 -0.71875 2.875 -0.734375l1.046875 0l0 -0.484375q0 -0.578125 -0.3125 -0.921875q-0.296875 -0.359375 -0.9375 -0.359375q-0.578125 0 -0.90625 0.28125q-0.3125 0.265625 -0.3125 0.734375l-2.265625 0q0 -0.734375 0.453125 -1.359375q0.453125 -0.625 1.28125 -0.96875q0.828125 -0.359375 1.859375 -0.359375q1.5625 0 2.484375 0.78125q0.921875 0.78125 0.921875 2.203125l0 3.671875q0 1.203125 0.328125 1.8125l0 0.140625l-2.28125 0zm-1.859375 -1.578125q0.5 0 0.921875 -0.21875q0.421875 -0.21875 0.625 -0.59375l0 -1.453125l-0.84375 0q-1.703125 0 -1.8125 1.171875l0 0.125q0 0.421875 0.296875 0.703125q0.296875 0.265625 0.8125 0.265625zm8.25 -8.953125l0 2.078125l1.4375 0l0 1.65625l-1.4375 0l0 4.21875q0 0.46875 0.171875 0.671875q0.1875 0.203125 0.6875 0.203125q0.375 0 0.671875 -0.0625l0 1.71875q-0.671875 0.203125 -1.375 0.203125q-2.375 0 -2.421875 -2.40625l0 -4.546875l-1.234375 0l0 -1.65625l1.234375 0l0 -2.078125l2.265625 0zm4.90625 3.0q0.890625 -1.078125 2.25 -1.078125q2.75 0 2.796875 3.1875l0 5.421875l-2.265625 0l0 -5.359375q0 -0.71875 -0.3125 -1.0625q-0.3125 -0.359375 -1.03125 -0.359375q-1.0 0 -1.4375 0.765625l0 6.015625l-2.265625 0l0 -12.0l2.265625 0l0 4.46875z" fill-rule="nonzero"/><path fill="#3c78d8" d="m674.05676 317.2339l0 0c0 -12.828674 10.399719 -23.228363 23.228394 -23.228363l115.08661 0c6.1605225 0 12.068726 2.4472656 16.424927 6.8034363c4.35614 4.3561707 6.803406 10.264374 6.803406 16.424927l0 0l0 0c0 12.828674 -10.399658 23.228333 -23.228333 23.228333l-115.08661 0c-12.828674 0 -23.228394 -10.399658 -23.228394 -23.228333z" fill-rule="evenodd"/><path stroke="#3c78d8" stroke-width="1.0" stroke-linejoin="round" stroke-linecap="butt" d="m674.05676 317.2339l0 0c0 -12.828674 10.399719 -23.228363 23.228394 -23.228363l115.08661 0c6.1605225 0 12.068726 2.4472656 16.424927 6.8034363c4.35614 4.3561707 6.803406 10.264374 6.803406 16.424927l0 0l0 0c0 12.828674 -10.399658 23.228333 -23.228333 23.228333l-115.08661 0c-12.828674 0 -23.228394 -10.399658 -23.228394 -23.228333z" fill-rule="evenodd"/><path fill="#ffffff" d="m712.46124 323.09387l0 -11.375l3.5 0q1.5 0 2.6875 0.671875q1.1875 0.671875 1.84375 1.921875q0.671875 1.25 0.671875 2.828125l0 0.53125q0 1.578125 -0.65625 2.8125q-0.65625 1.234375 -1.84375 1.921875q-1.1875 0.671875 -2.671875 0.6875l-3.53125 0zm2.34375 -9.484375l0 7.59375l1.140625 0q1.375 0 2.09375 -0.890625q0.734375 -0.90625 0.75 -2.578125l0 -0.59375q0 -1.734375 -0.71875 -2.625q-0.71875 -0.90625 -2.109375 -0.90625l-1.15625 0zm11.8046875 9.640625q-1.859375 0 -3.03125 -1.140625q-1.171875 -1.140625 -1.171875 -3.046875l0 -0.21875q0 -1.265625 0.484375 -2.265625q0.5 -1.015625 1.40625 -1.546875q0.90625 -0.546875 2.0625 -0.546875q1.734375 0 2.71875 1.09375q1.0 1.09375 1.0 3.09375l0 0.921875l-5.375 0q0.109375 0.828125 0.65625 1.328125q0.546875 0.5 1.390625 0.5q1.3125 0 2.046875 -0.9375l1.109375 1.234375q-0.515625 0.71875 -1.390625 1.125q-0.859375 0.40625 -1.90625 0.40625zm-0.265625 -6.9375q-0.671875 0 -1.09375 0.453125q-0.40625 0.453125 -0.53125 1.296875l3.140625 0l0 -0.1875q-0.015625 -0.75 -0.40625 -1.15625q-0.390625 -0.40625 -1.109375 -0.40625zm9.6015625 4.4375q0 -0.40625 -0.421875 -0.640625q-0.40625 -0.25 -1.3125 -0.4375q-3.015625 -0.625 -3.015625 -2.5625q0 -1.125 0.9375 -1.875q0.9375 -0.75 2.4375 -0.75q1.609375 0 2.578125 0.765625q0.96875 0.75 0.96875 1.953125l-2.265625 0q0 -0.484375 -0.3125 -0.796875q-0.3125 -0.3125 -0.96875 -0.3125q-0.578125 0 -0.890625 0.265625q-0.3125 0.25 -0.3125 0.640625q0 0.375 0.359375 0.609375q0.359375 0.234375 1.203125 0.40625q0.84375 0.15625 1.421875 0.375q1.78125 0.65625 1.78125 2.265625q0 1.15625 -1.0 1.875q-0.984375 0.71875 -2.546875 0.71875q-1.0625 0 -1.890625 -0.375q-0.828125 -0.390625 -1.296875 -1.046875q-0.46875 -0.65625 -0.46875 -1.421875l2.140625 0q0.03125 0.59375 0.4375 0.921875q0.421875 0.3125 1.125 0.3125q0.640625 0 0.96875 -0.234375q0.34375 -0.25 0.34375 -0.65625zm6.0234375 2.34375l-2.265625 0l0 -8.453125l2.265625 0l0 8.453125zm-2.390625 -10.640625q0 -0.515625 0.328125 -0.84375q0.34375 -0.328125 0.9375 -0.328125q0.578125 0 0.921875 0.328125q0.34375 0.328125 0.34375 0.84375q0 0.515625 -0.359375 0.84375q-0.34375 0.328125 -0.921875 0.328125q-0.5625 0 -0.90625 -0.328125q-0.34375 -0.328125 -0.34375 -0.84375zm3.9296875 6.34375q0 -1.9375 0.921875 -3.125q0.921875 -1.1875 2.5 -1.1875q1.390625 0 2.15625 0.953125l0.09375 -0.796875l2.046875 0l0 8.171875q0 1.109375 -0.5 1.921875q-0.5 0.828125 -1.421875 1.25q-0.90625 0.4375 -2.140625 0.4375q-0.921875 0 -1.8125 -0.375q-0.875 -0.359375 -1.328125 -0.953125l1.0 -1.375q0.84375 0.953125 2.046875 0.953125q0.890625 0 1.390625 -0.484375q0.5 -0.484375 0.5 -1.375l0 -0.453125q-0.78125 0.890625 -2.046875 0.890625q-1.53125 0 -2.46875 -1.1875q-0.9375 -1.203125 -0.9375 -3.171875l0 -0.09375zm2.25 0.171875q0 1.140625 0.453125 1.796875q0.46875 0.65625 1.28125 0.65625q1.03125 0 1.46875 -0.78125l0 -3.546875q-0.453125 -0.78125 -1.453125 -0.78125q-0.8125 0 -1.28125 0.671875q-0.46875 0.65625 -0.46875 1.984375zm9.2890625 -4.328125l0.0625 0.96875q0.90625 -1.125 2.4375 -1.125q1.34375 0 2.0 0.796875q0.65625 0.78125 0.671875 2.34375l0 5.46875l-2.265625 0l0 -5.40625q0 -0.71875 -0.3125 -1.046875q-0.3125 -0.328125 -1.03125 -0.328125q-0.953125 0 -1.4375 0.8125l0 5.96875l-2.25 0l0 -8.453125l2.125 0zm13.3515625 4.4375l0 4.015625l-2.34375 0l0 -11.375l4.4375 0q1.28125 0 2.25 0.46875q0.984375 0.46875 1.5 1.328125q0.53125 0.859375 0.53125 1.96875q0 1.671875 -1.15625 2.640625q-1.140625 0.953125 -3.15625 0.953125l-2.0625 0zm0 -1.890625l2.09375 0q0.9375 0 1.421875 -0.4375q0.484375 -0.4375 0.484375 -1.25q0 -0.84375 -0.5 -1.359375q-0.484375 -0.515625 -1.34375 -0.53125l-2.15625 0l0 3.578125zm12.640625 5.90625q-0.15625 -0.3125 -0.21875 -0.765625q-0.828125 0.921875 -2.140625 0.921875q-1.234375 0 -2.0625 -0.71875q-0.8125 -0.71875 -0.8125 -1.8125q0 -1.34375 1.0 -2.0625q1.0 -0.71875 2.875 -0.734375l1.046875 0l0 -0.484375q0 -0.578125 -0.3125 -0.921875q-0.296875 -0.359375 -0.9375 -0.359375q-0.578125 0 -0.90625 0.28125q-0.3125 0.265625 -0.3125 0.734375l-2.265625 0q0 -0.734375 0.453125 -1.359375q0.453125 -0.625 1.28125 -0.96875q0.828125 -0.359375 1.859375 -0.359375q1.5625 0 2.484375 0.78125q0.921875 0.78125 0.921875 2.203125l0 3.671875q0 1.203125 0.328125 1.8125l0 0.140625l-2.28125 0zm-1.859375 -1.578125q0.5 0 0.921875 -0.21875q0.421875 -0.21875 0.625 -0.59375l0 -1.453125l-0.84375 0q-1.703125 0 -1.8125 1.171875l0 0.125q0 0.421875 0.296875 0.703125q0.296875 0.265625 0.8125 0.265625zm8.25 -8.953125l0 2.078125l1.4375 0l0 1.65625l-1.4375 0l0 4.21875q0 0.46875 0.171875 0.671875q0.1875 0.203125 0.6875 0.203125q0.375 0 0.671875 -0.0625l0 1.71875q-0.671875 0.203125 -1.375 0.203125q-2.375 0 -2.421875 -2.40625l0 -4.546875l-1.234375 0l0 -1.65625l1.234375 0l0 -2.078125l2.265625 0zm4.90625 3.0q0.890625 -1.078125 2.25 -1.078125q2.75 0 2.796875 3.1875l0 5.421875l-2.265625 0l0 -5.359375q0 -0.71875 -0.3125 -1.0625q-0.3125 -0.359375 -1.03125 -0.359375q-1.0 0 -1.4375 0.765625l0 6.015625l-2.265625 0l0 -12.0l2.265625 0l0 4.46875z" fill-rule="nonzero"/><path fill="#000000" fill-opacity="0.0" d="m480.14084 151.54855l0 24.0l185.92123 0l0 24.0" fill-rule="evenodd"/><path stroke="#cccccc" stroke-width="2.0" stroke-linejoin="round" stroke-linecap="butt" d="m480.14084 151.54855l0 24.0l185.92123 0l0 24.0" fill-rule="evenodd"/><path fill="#000000" fill-opacity="0.0" d="m294.22256 199.5487l0 -24.0l185.92123 0l0 -24.0" fill-rule="evenodd"/><path stroke="#cccccc" stroke-width="2.0" stroke-linejoin="round" stroke-linecap="butt" d="m294.22256 199.5487l0 -24.0l185.92123 0l0 -24.0" fill-rule="evenodd"/><path fill="#000000" fill-opacity="0.0" d="m294.22256 246.00539l0 24.000015l88.75589 0l0 24.0" fill-rule="evenodd"/><path stroke="#cccccc" stroke-width="2.0" stroke-linejoin="round" stroke-linecap="butt" d="m294.22256 246.00539l0 24.000015l88.75589 0l0 24.0" fill-rule="evenodd"/><path fill="#000000" fill-opacity="0.0" d="m205.45392 294.00552l0 -24.0l88.75592 0l0 -23.999985" fill-rule="evenodd"/><path stroke="#cccccc" stroke-width="2.0" stroke-linejoin="round" stroke-linecap="butt" d="m205.45392 294.00552l0 -24.0l88.75592 0l0 -23.999985" fill-rule="evenodd"/><path fill="#000000" fill-opacity="0.0" d="m666.05914 246.00539l0 24.000015l88.75586 0l0 24.0" fill-rule="evenodd"/><path stroke="#cccccc" stroke-width="2.0" stroke-linejoin="round" stroke-linecap="butt" d="m666.05914 246.00539l0 24.000015l88.75586 0l0 24.0" fill-rule="evenodd"/><path fill="#000000" fill-opacity="0.0" d="m577.2912 294.00552l0 -24.0l88.75592 0l0 -23.999985" fill-rule="evenodd"/><path stroke="#cccccc" stroke-width="2.0" stroke-linejoin="round" stroke-linecap="butt" d="m577.2912 294.00552l0 -24.0l88.75592 0l0 -23.999985" fill-rule="evenodd"/><path fill="#6d9eeb" d="m44.2979 411.69058l0 0c0 -12.828674 10.399685 -23.228363 23.228344 -23.228363l115.08661 0c6.160553 0 12.068771 2.4472656 16.424927 6.8034363c4.3561554 4.3561707 6.803421 10.264374 6.803421 16.424927l0 0l0 0c0 12.828644 -10.399673 23.228333 -23.228348 23.228333l-115.08661 0c-12.828659 0 -23.228344 -10.399689 -23.228344 -23.228333z" fill-rule="evenodd"/><path stroke="#6d9eeb" stroke-width="1.0" stroke-linejoin="round" stroke-linecap="butt" d="m44.2979 411.69058l0 0c0 -12.828674 10.399685 -23.228363 23.228344 -23.228363l115.08661 0c6.160553 0 12.068771 2.4472656 16.424927 6.8034363c4.3561554 4.3561707 6.803421 10.264374 6.803421 16.424927l0 0l0 0c0 12.828644 -10.399673 23.228333 -23.228348 23.228333l-115.08661 0c-12.828659 0 -23.228344 -10.399689 -23.228344 -23.228333z" fill-rule="evenodd"/><path fill="#ffffff" d="m86.71 411.80182q0 1.53125 -0.546875 2.703125q-0.53125 1.15625 -1.546875 1.78125q-1.015625 0.625 -2.328125 0.625q-1.296875 0 -2.3125 -0.625q-1.015625 -0.625 -1.578125 -1.765625q-0.546875 -1.15625 -0.5625 -2.671875l0 -0.515625q0 -1.53125 0.546875 -2.703125q0.5625 -1.171875 1.578125 -1.796875q1.015625 -0.625 2.3125 -0.625q1.3125 0 2.3125 0.625q1.015625 0.625 1.5625 1.796875q0.5625 1.171875 0.5625 2.703125l0 0.46875zm-2.171875 -0.484375q0 -1.625 -0.59375 -2.46875q-0.578125 -0.859375 -1.671875 -0.859375q-1.078125 0 -1.671875 0.84375q-0.578125 0.828125 -0.578125 2.453125l0 0.515625q0 1.59375 0.578125 2.46875q0.59375 0.875 1.6875 0.875q1.078125 0 1.65625 -0.84375q0.59375 -0.84375 0.59375 -2.46875l0 -0.515625zm10.572235 1.65625q0 1.78125 -0.8125 2.859375q-0.8125 1.078125 -2.1875 1.078125q-1.1875 0 -1.90625 -0.8125l0 3.65625l-2.0625 0l0 -10.734375l1.921875 0l0.0625 0.765625q0.75 -0.90625 1.96875 -0.90625q1.421875 0 2.21875 1.0625q0.796875 1.0625 0.796875 2.921875l0 0.109375zm-2.0625 -0.15625q0 -1.078125 -0.390625 -1.65625q-0.375 -0.59375 -1.109375 -0.59375q-0.96875 0 -1.34375 0.75l0 3.15625q0.375 0.765625 1.359375 0.765625q1.484375 0 1.484375 -2.421875zm5.813797 -5.6875l0 1.890625l1.328125 0l0 1.53125l-1.328125 0l0 3.859375q0 0.421875 0.15625 0.609375q0.171875 0.1875 0.640625 0.1875q0.34375 0 0.609375 -0.046875l0 1.5625q-0.609375 0.1875 -1.25 0.1875q-2.171875 0 -2.21875 -2.1875l0 -4.171875l-1.125 0l0 -1.53125l1.125 0l0 -1.890625l2.0625 0zm4.6709595 9.640625l-2.078125 0l0 -7.75l2.078125 0l0 7.75zm-2.203125 -9.75q0 -0.46875 0.3125 -0.765625q0.3125 -0.296875 0.84375 -0.296875q0.53125 0 0.84375 0.296875q0.3125 0.296875 0.3125 0.765625q0 0.46875 -0.3125 0.78125q-0.3125 0.296875 -0.84375 0.296875q-0.515625 0 -0.84375 -0.296875q-0.3125 -0.3125 -0.3125 -0.78125zm7.120285 8.21875q0.578125 0 0.921875 -0.3125q0.359375 -0.3125 0.375 -0.828125l1.9375 0q0 0.78125 -0.421875 1.4375q-0.421875 0.65625 -1.15625 1.015625q-0.734375 0.359375 -1.625 0.359375q-1.65625 0 -2.625 -1.046875q-0.953125 -1.0625 -0.953125 -2.921875l0 -0.140625q0 -1.78125 0.953125 -2.84375q0.953125 -1.078125 2.609375 -1.078125q1.453125 0 2.328125 0.828125q0.890625 0.828125 0.890625 2.203125l-1.9375 0q-0.015625 -0.59375 -0.375 -0.96875q-0.34375 -0.390625 -0.9375 -0.390625q-0.71875 0 -1.09375 0.53125q-0.359375 0.53125 -0.359375 1.703125l0 0.21875q0 1.203125 0.359375 1.71875q0.359375 0.515625 1.109375 0.515625zm8.90863 1.53125q-0.140625 -0.28125 -0.203125 -0.6875q-0.75 0.828125 -1.953125 0.828125q-1.140625 0 -1.890625 -0.65625q-0.75 -0.65625 -0.75 -1.65625q0 -1.234375 0.90625 -1.890625q0.921875 -0.65625 2.640625 -0.671875l0.953125 0l0 -0.4375q0 -0.53125 -0.28125 -0.859375q-0.265625 -0.328125 -0.859375 -0.328125q-0.515625 0 -0.8125 0.25q-0.296875 0.25 -0.296875 0.6875l-2.078125 0q0 -0.671875 0.40625 -1.234375q0.421875 -0.578125 1.171875 -0.90625q0.765625 -0.328125 1.71875 -0.328125q1.421875 0 2.265625 0.71875q0.84375 0.71875 0.84375 2.03125l0 3.34375q0.015625 1.109375 0.3125 1.671875l0 0.125l-2.09375 0zm-1.703125 -1.4375q0.453125 0 0.828125 -0.203125q0.390625 -0.203125 0.578125 -0.546875l0 -1.328125l-0.765625 0q-1.5625 0 -1.65625 1.0625l0 0.125q0 0.390625 0.265625 0.640625q0.265625 0.25 0.75 0.25zm7.2639465 1.4375l-2.078125 0l0 -11.0l2.078125 0l0 11.0zm5.4887924 0l0 -10.421875l3.203125 0q1.375 0 2.453125 0.625q1.078125 0.609375 1.6875 1.75q0.609375 1.140625 0.609375 2.59375l0 0.484375q0 1.453125 -0.59375 2.59375q-0.59375 1.125 -1.6875 1.75q-1.078125 0.625 -2.453125 0.625l-3.21875 0zm2.140625 -8.6875l0 6.96875l1.03125 0q1.265625 0 1.921875 -0.828125q0.671875 -0.828125 0.6875 -2.359375l0 -0.546875q0 -1.59375 -0.65625 -2.40625q-0.65625 -0.828125 -1.921875 -0.828125l-1.0625 0zm10.806381 8.828125q-1.703125 0 -2.78125 -1.046875q-1.0625 -1.046875 -1.0625 -2.78125l0 -0.203125q0 -1.15625 0.453125 -2.078125q0.453125 -0.921875 1.265625 -1.421875q0.828125 -0.5 1.890625 -0.5q1.59375 0 2.5 1.015625q0.921875 1.0 0.921875 2.828125l0 0.84375l-4.9375 0q0.109375 0.765625 0.609375 1.21875q0.5 0.453125 1.28125 0.453125q1.1875 0 1.859375 -0.859375l1.015625 1.140625q-0.46875 0.65625 -1.265625 1.03125q-0.78125 0.359375 -1.75 0.359375zm-0.234375 -6.359375q-0.625 0 -1.015625 0.421875q-0.375 0.421875 -0.46875 1.1875l2.875 0l0 -0.15625q-0.015625 -0.6875 -0.375 -1.0625q-0.359375 -0.390625 -1.015625 -0.390625zm8.781479 4.078125q0 -0.375 -0.375 -0.59375q-0.375 -0.21875 -1.203125 -0.390625q-2.765625 -0.578125 -2.765625 -2.34375q0 -1.03125 0.859375 -1.71875q0.859375 -0.703125 2.234375 -0.703125q1.46875 0 2.359375 0.703125q0.890625 0.6875 0.890625 1.796875l-2.078125 0q0 -0.4375 -0.28125 -0.71875q-0.28125 -0.296875 -0.890625 -0.296875q-0.53125 0 -0.8125 0.234375q-0.28125 0.234375 -0.28125 0.59375q0 0.34375 0.3125 0.5625q0.328125 0.203125 1.09375 0.359375q0.78125 0.15625 1.3125 0.34375q1.640625 0.609375 1.640625 2.09375q0 1.046875 -0.90625 1.703125q-0.90625 0.65625 -2.34375 0.65625q-0.984375 0 -1.734375 -0.34375q-0.75 -0.34375 -1.1875 -0.953125q-0.421875 -0.609375 -0.421875 -1.3125l1.953125 0q0.03125 0.5625 0.40625 0.859375q0.390625 0.28125 1.015625 0.28125q0.59375 0 0.890625 -0.21875q0.3125 -0.234375 0.3125 -0.59375zm5.53566 2.140625l-2.078125 0l0 -7.75l2.078125 0l0 7.75zm-2.203125 -9.75q0 -0.46875 0.3125 -0.765625q0.3125 -0.296875 0.84375 -0.296875q0.53125 0 0.84375 0.296875q0.3125 0.296875 0.3125 0.765625q0 0.46875 -0.3125 0.78125q-0.3125 0.296875 -0.84375 0.296875q-0.515625 0 -0.84375 -0.296875q-0.3125 -0.3125 -0.3125 -0.78125zm3.60466 5.828125q0 -1.78125 0.84375 -2.875q0.84375 -1.09375 2.28125 -1.09375q1.28125 0 1.984375 0.875l0.09375 -0.734375l1.875 0l0 7.5q0 1.015625 -0.46875 1.765625q-0.46875 0.75 -1.3125 1.140625q-0.828125 0.390625 -1.953125 0.390625q-0.84375 0 -1.65625 -0.34375q-0.8125 -0.328125 -1.21875 -0.875l0.90625 -1.25q0.78125 0.859375 1.875 0.859375q0.828125 0 1.28125 -0.4375q0.46875 -0.4375 0.46875 -1.25l0 -0.421875q-0.71875 0.8125 -1.890625 0.8125q-1.390625 0 -2.25 -1.09375q-0.859375 -1.09375 -0.859375 -2.890625l0 -0.078125zm2.0625 0.140625q0 1.046875 0.421875 1.65625q0.421875 0.59375 1.15625 0.59375q0.953125 0 1.359375 -0.703125l0 -3.265625q-0.421875 -0.703125 -1.34375 -0.703125q-0.75 0 -1.171875 0.609375q-0.421875 0.609375 -0.421875 1.8125zm8.506424 -3.96875l0.0625 0.90625q0.828125 -1.046875 2.21875 -1.046875q1.234375 0 1.828125 0.734375q0.609375 0.71875 0.625 2.15625l0 5.0l-2.0625 0l0 -4.953125q0 -0.65625 -0.296875 -0.953125q-0.28125 -0.296875 -0.953125 -0.296875q-0.875 0 -1.3125 0.75l0 5.453125l-2.0625 0l0 -7.75l1.953125 0z" fill-rule="nonzero"/><path fill="#6d9eeb" d="m221.83516 411.69058l0 0c0 -12.828674 10.399689 -23.228363 23.228348 -23.228363l115.08661 0c6.160553 0 12.068756 2.4472656 16.424927 6.8034363c4.3561707 4.3561707 6.8034363 10.264374 6.8034363 16.424927l0 0l0 0c0 12.828644 -10.399689 23.228333 -23.228363 23.228333l-115.08661 0c-12.828659 0 -23.228348 -10.399689 -23.228348 -23.228333z" fill-rule="evenodd"/><path stroke="#6d9eeb" stroke-width="1.0" stroke-linejoin="round" stroke-linecap="butt" d="m221.83516 411.69058l0 0c0 -12.828674 10.399689 -23.228363 23.228348 -23.228363l115.08661 0c6.160553 0 12.068756 2.4472656 16.424927 6.8034363c4.3561707 4.3561707 6.8034363 10.264374 6.8034363 16.424927l0 0l0 0c0 12.828644 -10.399689 23.228333 -23.228363 23.228333l-115.08661 0c-12.828659 0 -23.228348 -10.399689 -23.228348 -23.228333z" fill-rule="evenodd"/><path fill="#ffffff" d="m247.76494 408.08307l-3.203125 0l0 8.6875l-2.140625 0l0 -8.6875l-3.15625 0l0 -1.734375l8.5 0l0 1.734375zm-0.73495483 4.75q0 -1.15625 0.4375 -2.0625q0.453125 -0.90625 1.28125 -1.390625q0.84375 -0.5 1.9375 -0.5q1.578125 0 2.5625 0.96875q0.984375 0.953125 1.109375 2.59375l0.015625 0.53125q0 1.78125 -1.0 2.859375q-1.0 1.078125 -2.671875 1.078125q-1.671875 0 -2.671875 -1.0625q-1.0 -1.078125 -1.0 -2.921875l0 -0.09375zm2.078125 0.140625q0 1.109375 0.40625 1.6875q0.421875 0.578125 1.1875 0.578125q0.75 0 1.171875 -0.5625q0.421875 -0.578125 0.421875 -1.84375q0 -1.09375 -0.421875 -1.6875q-0.421875 -0.59375 -1.1875 -0.59375q-0.75 0 -1.171875 0.59375q-0.40625 0.59375 -0.40625 1.828125zm8.724564 3.796875l-2.0781097 0l0 -11.0l2.0781097 0l0 11.0zm5.2609253 0.140625q-1.703125 0 -2.78125 -1.046875q-1.0625 -1.046875 -1.0625 -2.78125l0 -0.203125q0 -1.15625 0.453125 -2.078125q0.453125 -0.921875 1.265625 -1.421875q0.828125 -0.5 1.890625 -0.5q1.59375 0 2.5 1.015625q0.921875 1.0 0.921875 2.828125l0 0.84375l-4.9375 0q0.109375 0.765625 0.609375 1.21875q0.5 0.453125 1.28125 0.453125q1.1875 0 1.859375 -0.859375l1.015625 1.140625q-0.46875 0.65625 -1.265625 1.03125q-0.78125 0.359375 -1.75 0.359375zm-0.234375 -6.359375q-0.625 0 -1.015625 0.421875q-0.375 0.421875 -0.46875 1.1875l2.875 0l0 -0.15625q-0.015625 -0.6875 -0.375 -1.0625q-0.359375 -0.390625 -1.015625 -0.390625zm8.937714 0.421875q-0.421875 -0.0625 -0.734375 -0.0625q-1.171875 0 -1.546875 0.796875l0 5.0625l-2.0625 0l0 -7.75l1.953125 0l0.0625 0.9375q0.609375 -1.078125 1.71875 -1.078125q0.34375 0 0.640625 0.09375l-0.03125 2.0zm5.2716064 5.796875q-0.140625 -0.28125 -0.203125 -0.6875q-0.75 0.828125 -1.953125 0.828125q-1.140625 0 -1.890625 -0.65625q-0.75 -0.65625 -0.75 -1.65625q0 -1.234375 0.90625 -1.890625q0.921875 -0.65625 2.640625 -0.671875l0.953125 0l0 -0.4375q0 -0.53125 -0.28125 -0.859375q-0.265625 -0.328125 -0.859375 -0.328125q-0.515625 0 -0.8125 0.25q-0.296875 0.25 -0.296875 0.6875l-2.078125 0q0 -0.671875 0.40625 -1.234375q0.421875 -0.578125 1.171875 -0.90625q0.765625 -0.328125 1.71875 -0.328125q1.421875 0 2.265625 0.71875q0.84375 0.71875 0.84375 2.03125l0 3.34375q0.015625 1.109375 0.3125 1.671875l0 0.125l-2.09375 0zm-1.703125 -1.4375q0.453125 0 0.828125 -0.203125q0.390625 -0.203125 0.578125 -0.546875l0 -1.328125l-0.765625 0q-1.5625 0 -1.65625 1.0625l0 0.125q0 0.390625 0.265625 0.640625q0.265625 0.25 0.75 0.25zm6.9826965 -6.3125l0.0625 0.90625q0.828125 -1.046875 2.21875 -1.046875q1.234375 0 1.828125 0.734375q0.609375 0.71875 0.625 2.15625l0 5.0l-2.0625 0l0 -4.953125q0 -0.65625 -0.296875 -0.953125q-0.28125 -0.296875 -0.953125 -0.296875q-0.875 0 -1.3125 0.75l0 5.453125l-2.0625 0l0 -7.75l1.953125 0zm9.5208435 6.21875q0.578125 0 0.921875 -0.3125q0.359375 -0.3125 0.375 -0.828125l1.9375 0q0 0.78125 -0.421875 1.4375q-0.421875 0.65625 -1.15625 1.015625q-0.734375 0.359375 -1.625 0.359375q-1.65625 0 -2.625 -1.046875q-0.953125 -1.0625 -0.953125 -2.921875l0 -0.140625q0 -1.78125 0.953125 -2.84375q0.953125 -1.078125 2.609375 -1.078125q1.453125 0 2.328125 0.828125q0.890625 0.828125 0.890625 2.203125l-1.9375 0q-0.015625 -0.59375 -0.375 -0.96875q-0.34375 -0.390625 -0.9375 -0.390625q-0.71875 0 -1.09375 0.53125q-0.359375 0.53125 -0.359375 1.703125l0 0.21875q0 1.203125 0.359375 1.71875q0.359375 0.515625 1.109375 0.515625zm6.6117554 1.53125l-2.078125 0l0 -7.75l2.078125 0l0 7.75zm-2.203125 -9.75q0 -0.46875 0.3125 -0.765625q0.3125 -0.296875 0.84375 -0.296875q0.53125 0 0.84375 0.296875q0.3125 0.296875 0.3125 0.765625q0 0.46875 -0.3125 0.78125q-0.3125 0.296875 -0.84375 0.296875q-0.515625 0 -0.84375 -0.296875q-0.3125 -0.3125 -0.3125 -0.78125zm5.8078003 2.0l0.0625 0.90625q0.828125 -1.046875 2.21875 -1.046875q1.234375 0 1.828125 0.734375q0.609375 0.71875 0.625 2.15625l0 5.0l-2.0625 0l0 -4.953125q0 -0.65625 -0.296875 -0.953125q-0.28125 -0.296875 -0.953125 -0.296875q-0.875 0 -1.3125 0.75l0 5.453125l-2.0625 0l0 -7.75l1.953125 0zm6.0052185 3.828125q0 -1.78125 0.84375 -2.875q0.84375 -1.09375 2.28125 -1.09375q1.28125 0 1.984375 0.875l0.09375 -0.734375l1.875 0l0 7.5q0 1.015625 -0.46875 1.765625q-0.46875 0.75 -1.3125 1.140625q-0.828125 0.390625 -1.953125 0.390625q-0.84375 0 -1.65625 -0.34375q-0.8125 -0.328125 -1.21875 -0.875l0.90625 -1.25q0.78125 0.859375 1.875 0.859375q0.828125 0 1.28125 -0.4375q0.46875 -0.4375 0.46875 -1.25l0 -0.421875q-0.71875 0.8125 -1.890625 0.8125q-1.390625 0 -2.25 -1.09375q-0.859375 -1.09375 -0.859375 -2.890625l0 -0.078125zm2.0625 0.140625q0 1.046875 0.421875 1.65625q0.421875 0.59375 1.15625 0.59375q0.953125 0 1.359375 -0.703125l0 -3.265625q-0.421875 -0.703125 -1.34375 -0.703125q-0.75 0 -1.171875 0.609375q-0.421875 0.609375 -0.421875 1.8125zm15.781189 1.046875q0 -0.609375 -0.4375 -0.9375q-0.421875 -0.328125 -1.546875 -0.6875q-1.109375 -0.359375 -1.75 -0.703125q-1.78125 -0.96875 -1.78125 -2.59375q0 -0.84375 0.46875 -1.5q0.484375 -0.65625 1.375 -1.03125q0.890625 -0.375 2.0 -0.375q1.125 0 1.984375 0.40625q0.875 0.40625 1.359375 1.140625q0.484375 0.734375 0.484375 1.671875l-2.140625 0q0 -0.71875 -0.453125 -1.109375q-0.453125 -0.40625 -1.265625 -0.40625q-0.796875 0 -1.234375 0.34375q-0.421875 0.328125 -0.421875 0.875q0 0.5 0.5 0.84375q0.515625 0.34375 1.515625 0.65625q1.828125 0.546875 2.65625 1.359375q0.84375 0.8125 0.84375 2.03125q0 1.359375 -1.03125 2.125q-1.015625 0.765625 -2.75 0.765625q-1.203125 0 -2.1875 -0.4375q-0.984375 -0.4375 -1.5 -1.203125q-0.515625 -0.765625 -0.515625 -1.78125l2.140625 0q0 1.734375 2.0625 1.734375q0.765625 0 1.1875 -0.3125q0.4375 -0.3125 0.4375 -0.875zm6.697357 1.203125q0.578125 0 0.921875 -0.3125q0.359375 -0.3125 0.375 -0.828125l1.9375 0q0 0.78125 -0.421875 1.4375q-0.421875 0.65625 -1.15625 1.015625q-0.734375 0.359375 -1.625 0.359375q-1.65625 0 -2.625 -1.046875q-0.953125 -1.0625 -0.953125 -2.921875l0 -0.140625q0 -1.78125 0.953125 -2.84375q0.953125 -1.078125 2.609375 -1.078125q1.453125 0 2.328125 0.828125q0.890625 0.828125 0.890625 2.203125l-1.9375 0q-0.015625 -0.59375 -0.375 -0.96875q-0.34375 -0.390625 -0.9375 -0.390625q-0.71875 0 -1.09375 0.53125q-0.359375 0.53125 -0.359375 1.703125l0 0.21875q0 1.203125 0.359375 1.71875q0.359375 0.515625 1.109375 0.515625zm8.768005 -4.265625q-0.421875 -0.0625 -0.734375 -0.0625q-1.171875 0 -1.546875 0.796875l0 5.0625l-2.0625 0l0 -7.75l1.953125 0l0.0625 0.9375q0.609375 -1.078125 1.71875 -1.078125q0.34375 0 0.640625 0.09375l-0.03125 2.0zm3.1895752 5.796875l-2.078125 0l0 -7.75l2.078125 0l0 7.75zm-2.203125 -9.75q0 -0.46875 0.3125 -0.765625q0.3125 -0.296875 0.84375 -0.296875q0.53125 0 0.84375 0.296875q0.3125 0.296875 0.3125 0.765625q0 0.46875 -0.3125 0.78125q-0.3125 0.296875 -0.84375 0.296875q-0.515625 0 -0.84375 -0.296875q-0.3125 -0.3125 -0.3125 -0.78125zm10.87027 5.953125q0 1.78125 -0.8125 2.859375q-0.8125 1.078125 -2.1875 1.078125q-1.1875 0 -1.90625 -0.8125l0 3.65625l-2.0625 0l0 -10.734375l1.921875 0l0.0625 0.765625q0.75 -0.90625 1.96875 -0.90625q1.421875 0 2.21875 1.0625q0.796875 1.0625 0.796875 2.921875l0 0.109375zm-2.0625 -0.15625q0 -1.078125 -0.390625 -1.65625q-0.375 -0.59375 -1.109375 -0.59375q-0.96875 0 -1.34375 0.75l0 3.15625q0.375 0.765625 1.359375 0.765625q1.484375 0 1.484375 -2.421875zm5.8138123 -5.6875l0 1.890625l1.328125 0l0 1.53125l-1.328125 0l0 3.859375q0 0.421875 0.15625 0.609375q0.171875 0.1875 0.640625 0.1875q0.34375 0 0.609375 -0.046875l0 1.5625q-0.609375 0.1875 -1.25 0.1875q-2.171875 0 -2.21875 -2.1875l0 -4.171875l-1.125 0l0 -1.53125l1.125 0l0 -1.890625l2.0625 0zm6.6709595 7.5q0 -0.375 -0.375 -0.59375q-0.375 -0.21875 -1.203125 -0.390625q-2.765625 -0.578125 -2.765625 -2.34375q0 -1.03125 0.859375 -1.71875q0.859375 -0.703125 2.234375 -0.703125q1.46875 0 2.359375 0.703125q0.890625 0.6875 0.890625 1.796875l-2.078125 0q0 -0.4375 -0.28125 -0.71875q-0.28125 -0.296875 -0.890625 -0.296875q-0.53125 0 -0.8125 0.234375q-0.28125 0.234375 -0.28125 0.59375q0 0.34375 0.3125 0.5625q0.328125 0.203125 1.09375 0.359375q0.78125 0.15625 1.3125 0.34375q1.640625 0.609375 1.640625 2.09375q0 1.046875 -0.90625 1.703125q-0.90625 0.65625 -2.34375 0.65625q-0.984375 0 -1.734375 -0.34375q-0.75 -0.34375 -1.1875 -0.953125q-0.421875 -0.609375 -0.421875 -1.3125l1.953125 0q0.03125 0.5625 0.40625 0.859375q0.390625 0.28125 1.015625 0.28125q0.59375 0 0.890625 -0.21875q0.3125 -0.234375 0.3125 -0.59375z" fill-rule="nonzero"/><path fill="#6d9eeb" d="m399.3738 411.69058l0 0c0 -12.828674 10.399689 -23.228363 23.228363 -23.228363l115.08661 0c6.1605225 0 12.068787 2.4472656 16.424927 6.8034363c4.35614 4.3561707 6.803406 10.264374 6.803406 16.424927l0 0l0 0c0 12.828644 -10.399658 23.228333 -23.228333 23.228333l-115.08661 0c-12.828674 0 -23.228363 -10.399689 -23.228363 -23.228333z" fill-rule="evenodd"/><path stroke="#6d9eeb" stroke-width="1.0" stroke-linejoin="round" stroke-linecap="butt" d="m399.3738 411.69058l0 0c0 -12.828674 10.399689 -23.228363 23.228363 -23.228363l115.08661 0c6.1605225 0 12.068787 2.4472656 16.424927 6.8034363c4.35614 4.3561707 6.803406 10.264374 6.803406 16.424927l0 0l0 0c0 12.828644 -10.399658 23.228333 -23.228333 23.228333l-115.08661 0c-12.828674 0 -23.228363 -10.399689 -23.228363 -23.228333z" fill-rule="evenodd"/><path fill="#ffffff" d="m431.9017 413.0987l0 3.671875l-2.140625 0l0 -10.421875l4.0625 0q1.171875 0 2.0625 0.4375q0.890625 0.421875 1.359375 1.21875q0.484375 0.78125 0.484375 1.796875q0 1.53125 -1.046875 2.421875q-1.046875 0.875 -2.90625 0.875l-1.875 0zm0 -1.734375l1.921875 0q0.84375 0 1.28125 -0.40625q0.453125 -0.40625 0.453125 -1.140625q0 -0.765625 -0.453125 -1.234375q-0.4375 -0.484375 -1.234375 -0.5l-1.96875 0l0 3.28125zm6.7510986 1.46875q0 -1.15625 0.4375 -2.0625q0.453125 -0.90625 1.28125 -1.390625q0.84375 -0.5 1.9375 -0.5q1.578125 0 2.5625 0.96875q0.984375 0.953125 1.109375 2.59375l0.015625 0.53125q0 1.78125 -1.0 2.859375q-1.0 1.078125 -2.671875 1.078125q-1.671875 0 -2.671875 -1.0625q-1.0 -1.078125 -1.0 -2.921875l0 -0.09375zm2.078125 0.140625q0 1.109375 0.40625 1.6875q0.421875 0.578125 1.1875 0.578125q0.75 0 1.171875 -0.5625q0.421875 -0.578125 0.421875 -1.84375q0 -1.09375 -0.421875 -1.6875q-0.421875 -0.59375 -1.1875 -0.59375q-0.75 0 -1.171875 0.59375q-0.40625 0.59375 -0.40625 1.828125zm13.271454 0.984375l1.015625 -4.9375l2.0 0l-1.984375 7.75l-1.734375 0l-1.453125 -4.875l-1.46875 4.875l-1.734375 0l-1.96875 -7.75l2.0 0l1.0 4.9375l1.421875 -4.9375l1.5 0l1.40625 4.9375zm7.5984497 2.953125q-1.703125 0 -2.78125 -1.046875q-1.0625 -1.046875 -1.0625 -2.78125l0 -0.203125q0 -1.15625 0.453125 -2.078125q0.453125 -0.921875 1.265625 -1.421875q0.828125 -0.5 1.890625 -0.5q1.59375 0 2.5 1.015625q0.921875 1.0 0.921875 2.828125l0 0.84375l-4.9375 0q0.109375 0.765625 0.609375 1.21875q0.5 0.453125 1.28125 0.453125q1.1875 0 1.859375 -0.859375l1.015625 1.140625q-0.46875 0.65625 -1.265625 1.03125q-0.78125 0.359375 -1.75 0.359375zm-0.234375 -6.359375q-0.625 0 -1.015625 0.421875q-0.375 0.421875 -0.46875 1.1875l2.875 0l0 -0.15625q-0.015625 -0.6875 -0.375 -1.0625q-0.359375 -0.390625 -1.015625 -0.390625zm8.937744 0.421875q-0.421875 -0.0625 -0.734375 -0.0625q-1.171875 0 -1.546875 0.796875l0 5.0625l-2.0625 0l0 -7.75l1.953125 0l0.0625 0.9375q0.609375 -1.078125 1.71875 -1.078125q0.34375 0 0.640625 0.09375l-0.03125 2.0zm7.9707947 2.0q0 1.78125 -0.8125 2.859375q-0.8125 1.078125 -2.1875 1.078125q-1.1875 0 -1.90625 -0.8125l0 3.65625l-2.0625 0l0 -10.734375l1.921875 0l0.0625 0.765625q0.75 -0.90625 1.96875 -0.90625q1.421875 0 2.21875 1.0625q0.796875 1.0625 0.796875 2.921875l0 0.109375zm-2.0625 -0.15625q0 -1.078125 -0.390625 -1.65625q-0.375 -0.59375 -1.109375 -0.59375q-0.96875 0 -1.34375 0.75l0 3.15625q0.375 0.765625 1.359375 0.765625q1.484375 0 1.484375 -2.421875zm3.0169373 0.015625q0 -1.15625 0.4375 -2.0625q0.453125 -0.90625 1.28125 -1.390625q0.84375 -0.5 1.9375 -0.5q1.578125 0 2.5625 0.96875q0.984375 0.953125 1.109375 2.59375l0.015625 0.53125q0 1.78125 -1.0 2.859375q-1.0 1.078125 -2.671875 1.078125q-1.671875 0 -2.671875 -1.0625q-1.0 -1.078125 -1.0 -2.921875l0 -0.09375zm2.078125 0.140625q0 1.109375 0.40625 1.6875q0.421875 0.578125 1.1875 0.578125q0.75 0 1.171875 -0.5625q0.421875 -0.578125 0.421875 -1.84375q0 -1.09375 -0.421875 -1.6875q-0.421875 -0.59375 -1.1875 -0.59375q-0.75 0 -1.171875 0.59375q-0.40625 0.59375 -0.40625 1.828125zm8.724579 3.796875l-2.078125 0l0 -7.75l2.078125 0l0 7.75zm-2.203125 -9.75q0 -0.46875 0.3125 -0.765625q0.3125 -0.296875 0.84375 -0.296875q0.53125 0 0.84375 0.296875q0.3125 0.296875 0.3125 0.765625q0 0.46875 -0.3125 0.78125q-0.3125 0.296875 -0.84375 0.296875q-0.515625 0 -0.84375 -0.296875q-0.3125 -0.3125 -0.3125 -0.78125zm5.80777 2.0l0.0625 0.90625q0.828125 -1.046875 2.21875 -1.046875q1.234375 0 1.828125 0.734375q0.609375 0.71875 0.625 2.15625l0 5.0l-2.0625 0l0 -4.953125q0 -0.65625 -0.296875 -0.953125q-0.28125 -0.296875 -0.953125 -0.296875q-0.875 0 -1.3125 0.75l0 5.453125l-2.0625 0l0 -7.75l1.953125 0zm8.770874 -1.890625l0 1.890625l1.328125 0l0 1.53125l-1.328125 0l0 3.859375q0 0.421875 0.15625 0.609375q0.171875 0.1875 0.640625 0.1875q0.34375 0 0.609375 -0.046875l0 1.5625q-0.609375 0.1875 -1.25 0.1875q-2.171875 0 -2.21875 -2.1875l0 -4.171875l-1.125 0l0 -1.53125l1.125 0l0 -1.890625l2.0625 0zm12.539429 5.375l-4.1249695 0l0 4.265625l-2.140625 0l0 -10.421875l6.7812195 0l0 1.734375l-4.6405945 0l0 2.703125l4.1249695 0l0 1.71875zm3.81073 4.265625l-2.078125 0l0 -7.75l2.078125 0l0 7.75zm-2.203125 -9.75q0 -0.46875 0.3125 -0.765625q0.3125 -0.296875 0.84375 -0.296875q0.53125 0 0.84375 0.296875q0.3125 0.296875 0.3125 0.765625q0 0.46875 -0.3125 0.78125q-0.3125 0.296875 -0.84375 0.296875q-0.515625 0 -0.84375 -0.296875q-0.3125 -0.3125 -0.3125 -0.78125zm6.0890503 9.75l-2.078125 0l0 -11.0l2.078125 0l0 11.0zm5.2608643 0.140625q-1.703125 0 -2.78125 -1.046875q-1.0625 -1.046875 -1.0625 -2.78125l0 -0.203125q0 -1.15625 0.453125 -2.078125q0.453125 -0.921875 1.265625 -1.421875q0.828125 -0.5 1.890625 -0.5q1.59375 0 2.5 1.015625q0.921875 1.0 0.921875 2.828125l0 0.84375l-4.9375 0q0.109375 0.765625 0.609375 1.21875q0.5 0.453125 1.28125 0.453125q1.1875 0 1.859375 -0.859375l1.015625 1.140625q-0.46875 0.65625 -1.265625 1.03125q-0.78125 0.359375 -1.75 0.359375zm-0.234375 -6.359375q-0.625 0 -1.015625 0.421875q-0.375 0.421875 -0.46875 1.1875l2.875 0l0 -0.15625q-0.015625 -0.6875 -0.375 -1.0625q-0.359375 -0.390625 -1.015625 -0.390625z" fill-rule="nonzero"/><path fill="#6d9eeb" d="m576.9111 411.69058l0 0c0 -12.828674 10.399719 -23.228363 23.228333 -23.228363l115.08661 0c6.1605835 0 12.068787 2.4472656 16.424927 6.8034363c4.356201 4.3561707 6.803467 10.264374 6.803467 16.424927l0 0l0 0c0 12.828644 -10.399719 23.228333 -23.228394 23.228333l-115.08661 0c-12.828613 0 -23.228333 -10.399689 -23.228333 -23.228333z" fill-rule="evenodd"/><path stroke="#6d9eeb" stroke-width="1.0" stroke-linejoin="round" stroke-linecap="butt" d="m576.9111 411.69058l0 0c0 -12.828674 10.399719 -23.228363 23.228333 -23.228363l115.08661 0c6.1605835 0 12.068787 2.4472656 16.424927 6.8034363c4.356201 4.3561707 6.803467 10.264374 6.803467 16.424927l0 0l0 0c0 12.828644 -10.399719 23.228333 -23.228394 23.228333l-115.08661 0c-12.828613 0 -23.228333 -10.399689 -23.228333 -23.228333z" fill-rule="evenodd"/><path fill="#ffffff" d="m617.2265 406.3487l2.671875 7.5625l2.671875 -7.5625l2.8125 0l0 10.421875l-2.15625 0l0 -2.84375l0.21875 -4.921875l-2.8125 7.765625l-1.46875 0l-2.8125 -7.75l0.21875 4.90625l0 2.84375l-2.140625 0l0 -10.421875l2.796875 0zm14.385437 10.421875q-0.140625 -0.28125 -0.203125 -0.6875q-0.75 0.828125 -1.953125 0.828125q-1.140625 0 -1.890625 -0.65625q-0.75 -0.65625 -0.75 -1.65625q0 -1.234375 0.90625 -1.890625q0.921875 -0.65625 2.640625 -0.671875l0.953125 0l0 -0.4375q0 -0.53125 -0.28125 -0.859375q-0.265625 -0.328125 -0.859375 -0.328125q-0.515625 0 -0.8125 0.25q-0.296875 0.25 -0.296875 0.6875l-2.078125 0q0 -0.671875 0.40625 -1.234375q0.421875 -0.578125 1.171875 -0.90625q0.765625 -0.328125 1.71875 -0.328125q1.421875 0 2.265625 0.71875q0.84375 0.71875 0.84375 2.03125l0 3.34375q0.015625 1.109375 0.3125 1.671875l0 0.125l-2.09375 0zm-1.703125 -1.4375q0.453125 0 0.828125 -0.203125q0.390625 -0.203125 0.578125 -0.546875l0 -1.328125l-0.765625 0q-1.5625 0 -1.65625 1.0625l0 0.125q0 0.390625 0.265625 0.640625q0.265625 0.25 0.75 0.25zm7.545166 -8.203125l0 1.890625l1.328125 0l0 1.53125l-1.328125 0l0 3.859375q0 0.421875 0.15625 0.609375q0.171875 0.1875 0.640625 0.1875q0.34375 0 0.609375 -0.046875l0 1.5625q-0.609375 0.1875 -1.25 0.1875q-2.171875 0 -2.21875 -2.1875l0 -4.171875l-1.125 0l0 -1.53125l1.125 0l0 -1.890625l2.0625 0zm4.6709595 9.640625l-2.078125 0l0 -11.0l2.078125 0l0 11.0zm6.1828003 0q-0.140625 -0.28125 -0.203125 -0.6875q-0.75 0.828125 -1.953125 0.828125q-1.140625 0 -1.890625 -0.65625q-0.75 -0.65625 -0.75 -1.65625q0 -1.234375 0.90625 -1.890625q0.921875 -0.65625 2.640625 -0.671875l0.953125 0l0 -0.4375q0 -0.53125 -0.28125 -0.859375q-0.265625 -0.328125 -0.859375 -0.328125q-0.515625 0 -0.8125 0.25q-0.296875 0.25 -0.296875 0.6875l-2.078125 0q0 -0.671875 0.40625 -1.234375q0.421875 -0.578125 1.171875 -0.90625q0.765625 -0.328125 1.71875 -0.328125q1.421875 0 2.265625 0.71875q0.84375 0.71875 0.84375 2.03125l0 3.34375q0.015625 1.109375 0.3125 1.671875l0 0.125l-2.09375 0zm-1.703125 -1.4375q0.453125 0 0.828125 -0.203125q0.390625 -0.203125 0.578125 -0.546875l0 -1.328125l-0.765625 0q-1.5625 0 -1.65625 1.0625l0 0.125q0 0.390625 0.265625 0.640625q0.265625 0.25 0.75 0.25zm12.045166 -2.359375q0 1.859375 -0.796875 2.90625q-0.78125 1.03125 -2.203125 1.03125q-1.265625 0 -2.015625 -0.96875l-0.09375 0.828125l-1.859375 0l0 -11.0l2.0625 0l0 3.953125q0.71875 -0.84375 1.890625 -0.84375q1.40625 0 2.203125 1.046875q0.8125 1.046875 0.8125 2.921875l0 0.125zm-2.0625 -0.15625q0 -1.171875 -0.375 -1.703125q-0.375 -0.546875 -1.109375 -0.546875q-0.984375 0 -1.359375 0.8125l0 3.046875q0.375 0.8125 1.375 0.8125q1.0 0 1.3125 -0.984375q0.15625 -0.46875 0.15625 -1.4375zm12.526062 1.21875q0 -0.609375 -0.4375 -0.9375q-0.421875 -0.328125 -1.546875 -0.6875q-1.109375 -0.359375 -1.75 -0.703125q-1.78125 -0.96875 -1.78125 -2.59375q0 -0.84375 0.46875 -1.5q0.484375 -0.65625 1.375 -1.03125q0.890625 -0.375 2.0 -0.375q1.125 0 1.984375 0.40625q0.875 0.40625 1.359375 1.140625q0.484375 0.734375 0.484375 1.671875l-2.140625 0q0 -0.71875 -0.453125 -1.109375q-0.453125 -0.40625 -1.265625 -0.40625q-0.796875 0 -1.234375 0.34375q-0.421875 0.328125 -0.421875 0.875q0 0.5 0.5 0.84375q0.515625 0.34375 1.515625 0.65625q1.828125 0.546875 2.65625 1.359375q0.84375 0.8125 0.84375 2.03125q0 1.359375 -1.03125 2.125q-1.015625 0.765625 -2.75 0.765625q-1.203125 0 -2.1875 -0.4375q-0.984375 -0.4375 -1.5 -1.203125q-0.515625 -0.765625 -0.515625 -1.78125l2.140625 0q0 1.734375 2.0625 1.734375q0.765625 0 1.1875 -0.3125q0.4375 -0.3125 0.4375 -0.875zm6.6973877 1.203125q0.578125 0 0.921875 -0.3125q0.359375 -0.3125 0.375 -0.828125l1.9375 0q0 0.78125 -0.421875 1.4375q-0.421875 0.65625 -1.15625 1.015625q-0.734375 0.359375 -1.625 0.359375q-1.65625 0 -2.625 -1.046875q-0.953125 -1.0625 -0.953125 -2.921875l0 -0.140625q0 -1.78125 0.953125 -2.84375q0.953125 -1.078125 2.609375 -1.078125q1.453125 0 2.328125 0.828125q0.890625 0.828125 0.890625 2.203125l-1.9375 0q-0.015625 -0.59375 -0.375 -0.96875q-0.34375 -0.390625 -0.9375 -0.390625q-0.71875 0 -1.09375 0.53125q-0.359375 0.53125 -0.359375 1.703125l0 0.21875q0 1.203125 0.359375 1.71875q0.359375 0.515625 1.109375 0.515625zm8.768005 -4.265625q-0.421875 -0.0625 -0.734375 -0.0625q-1.171875 0 -1.546875 0.796875l0 5.0625l-2.0625 0l0 -7.75l1.953125 0l0.0625 0.9375q0.609375 -1.078125 1.71875 -1.078125q0.34375 0 0.640625 0.09375l-0.03125 2.0zm3.1895752 5.796875l-2.078125 0l0 -7.75l2.078125 0l0 7.75zm-2.203125 -9.75q0 -0.46875 0.3125 -0.765625q0.3125 -0.296875 0.84375 -0.296875q0.53125 0 0.84375 0.296875q0.3125 0.296875 0.3125 0.765625q0 0.46875 -0.3125 0.78125q-0.3125 0.296875 -0.84375 0.296875q-0.515625 0 -0.84375 -0.296875q-0.3125 -0.3125 -0.3125 -0.78125zm10.870239 5.953125q0 1.78125 -0.8125 2.859375q-0.8125 1.078125 -2.1875 1.078125q-1.1875 0 -1.90625 -0.8125l0 3.65625l-2.0625 0l0 -10.734375l1.921875 0l0.0625 0.765625q0.75 -0.90625 1.96875 -0.90625q1.421875 0 2.21875 1.0625q0.796875 1.0625 0.796875 2.921875l0 0.109375zm-2.0625 -0.15625q0 -1.078125 -0.390625 -1.65625q-0.375 -0.59375 -1.109375 -0.59375q-0.96875 0 -1.34375 0.75l0 3.15625q0.375 0.765625 1.359375 0.765625q1.484375 0 1.484375 -2.421875zm5.813843 -5.6875l0 1.890625l1.328125 0l0 1.53125l-1.328125 0l0 3.859375q0 0.421875 0.15625 0.609375q0.171875 0.1875 0.640625 0.1875q0.34375 0 0.609375 -0.046875l0 1.5625q-0.609375 0.1875 -1.25 0.1875q-2.171875 0 -2.21875 -2.1875l0 -4.171875l-1.125 0l0 -1.53125l1.125 0l0 -1.890625l2.0625 0z" fill-rule="nonzero"/><path fill="#6d9eeb" d="m754.44904 411.69058l0 0c0 -12.828674 10.399658 -23.228363 23.228333 -23.228363l115.08661 0c6.1605835 0 12.068787 2.4472656 16.424927 6.8034363c4.356201 4.3561707 6.803467 10.264374 6.803467 16.424927l0 0l0 0c0 12.828644 -10.399719 23.228333 -23.228394 23.228333l-115.08661 0c-12.828674 0 -23.228333 -10.399689 -23.228333 -23.228333z" fill-rule="evenodd"/><path stroke="#6d9eeb" stroke-width="1.0" stroke-linejoin="round" stroke-linecap="butt" d="m754.44904 411.69058l0 0c0 -12.828674 10.399658 -23.228363 23.228333 -23.228363l115.08661 0c6.1605835 0 12.068787 2.4472656 16.424927 6.8034363c4.356201 4.3561707 6.803467 10.264374 6.803467 16.424927l0 0l0 0c0 12.828644 -10.399719 23.228333 -23.228394 23.228333l-115.08661 0c-12.828674 0 -23.228333 -10.399689 -23.228333 -23.228333z" fill-rule="evenodd"/><path fill="#ffffff" d="m829.8751 412.25494l-4.125 0l0 2.796875l4.84375 0l0 1.71875l-6.984375 0l0 -10.421875l6.96875 0l0 1.734375l-4.828125 0l0 2.484375l4.125 0l0 1.6875zm4.3066406 -5.125l0 1.890625l1.328125 0l0 1.53125l-1.328125 0l0 3.859375q0 0.421875 0.15625 0.609375q0.171875 0.1875 0.640625 0.1875q0.34375 0 0.609375 -0.046875l0 1.5625q-0.609375 0.1875 -1.25 0.1875q-2.171875 0 -2.21875 -2.1875l0 -4.171875l-1.125 0l0 -1.53125l1.125 0l0 -1.890625l2.0625 0zm5.7022095 8.109375q0.578125 0 0.921875 -0.3125q0.359375 -0.3125 0.375 -0.828125l1.9375 0q0 0.78125 -0.421875 1.4375q-0.421875 0.65625 -1.15625 1.015625q-0.734375 0.359375 -1.625 0.359375q-1.65625 0 -2.625 -1.046875q-0.953125 -1.0625 -0.953125 -2.921875l0 -0.140625q0 -1.78125 0.953125 -2.84375q0.953125 -1.078125 2.609375 -1.078125q1.453125 0 2.328125 0.828125q0.890625 0.828125 0.890625 2.203125l-1.9375 0q-0.015625 -0.59375 -0.375 -0.96875q-0.34375 -0.390625 -0.9375 -0.390625q-0.71875 0 -1.09375 0.53125q-0.359375 0.53125 -0.359375 1.703125l0 0.21875q0 1.203125 0.359375 1.71875q0.359375 0.515625 1.109375 0.515625zm4.5336304 0.515625q0 -0.5 0.328125 -0.796875q0.328125 -0.3125 0.828125 -0.3125q0.515625 0 0.84375 0.3125q0.328125 0.296875 0.328125 0.796875q0 0.484375 -0.328125 0.796875q-0.328125 0.296875 -0.84375 0.296875q-0.5 0 -0.828125 -0.296875q-0.328125 -0.3125 -0.328125 -0.796875z" fill-rule="nonzero"/><path fill="#000000" fill-opacity="0.0" d="m125.06956 388.46222l0 -24.0l80.37795 0l0 -24.0" fill-rule="evenodd"/><path stroke="#cccccc" stroke-width="2.0" stroke-linejoin="round" stroke-linecap="butt" d="m125.06956 388.46222l0 -24.0l80.37795 0l0 -24.0" fill-rule="evenodd"/><path fill="#000000" fill-opacity="0.0" d="m302.6068 388.46222l0 -24.0l-97.165344 0l0 -24.0" fill-rule="evenodd"/><path stroke="#cccccc" stroke-width="2.0" stroke-linejoin="round" stroke-linecap="butt" d="m302.6068 388.46222l0 -24.0l-97.165344 0l0 -24.0" fill-rule="evenodd"/><path fill="#000000" fill-opacity="0.0" d="m480.14548 388.46222l0 -24.0l97.13388 0l0 -24.0" fill-rule="evenodd"/><path stroke="#cccccc" stroke-width="2.0" stroke-linejoin="round" stroke-linecap="butt" d="m480.14548 388.46222l0 -24.0l97.13388 0l0 -24.0" fill-rule="evenodd"/><path fill="#000000" fill-opacity="0.0" d="m657.68274 388.46222l0 -24.0l-80.37799 0l0 -24.0" fill-rule="evenodd"/><path stroke="#cccccc" stroke-width="2.0" stroke-linejoin="round" stroke-linecap="butt" d="m657.68274 388.46222l0 -24.0l-80.37799 0l0 -24.0" fill-rule="evenodd"/><path fill="#000000" fill-opacity="0.0" d="m835.2207 388.46222l0 -24.0l-80.37799 0l0 -24.0" fill-rule="evenodd"/><path stroke="#cccccc" stroke-width="2.0" stroke-linejoin="round" stroke-linecap="butt" d="m835.2207 388.46222l0 -24.0l-80.37799 0l0 -24.0" fill-rule="evenodd"/></g></svg>