<svg xmlns="http://www.w3.org/2000/svg" version="1.1" width="49.5" height="68.0">
<path class = "svg-optic-line" d= "M 8.0 10.2 L 8.0 9.8 L 8.0 9.4 L 8.0 9.1 L 8.0 8.7 L 8.0 8.3 L 8.0 7.9 L 8.0 7.6 L 8.0 7.2 L 8.0 6.8" stroke="black" stroke-width="2" fill="transparent"/>
<path class = "svg-top-line" d= "M 8.0 6.8 L 8.0 6.8" stroke="black" stroke-width="2" fill="transparent"/>
<path class = "svg-bottom-line" d= "M 8.0 10.2 L 8.0 10.2" stroke="black" stroke-width="2" fill="transparent"/>
<path class = "svg-optic-line" d= "M 16.5 17.0 L 16.5 15.1 L 16.5 13.2 L 16.5 11.3 L 16.5 9.4 L 16.5 7.6 L 16.5 5.7 L 16.5 3.8 L 16.5 1.9 L 16.5 0.0" stroke="black" stroke-width="2" fill="transparent"/>
<path class = "svg-optic-line" d= "M 33.5 17.0 L 31.6 15.1 L 29.7 13.2 L 27.8 11.3 L 25.9 9.4 L 24.1 7.6 L 22.2 5.7 L 20.3 3.8 L 18.4 1.9 L 16.5 0.0" stroke="black" stroke-width="2" fill="transparent"/>
<path class = "svg-optic-line" d= "M 33.5 17.0 L 31.6 17.0 L 29.7 17.0 L 27.8 17.0 L 25.9 17.0 L 24.1 17.0 L 22.2 17.0 L 20.3 17.0 L 18.4 17.0 L 16.5 17.0" stroke="black" stroke-width="2" fill="transparent"/>
<path class = "svg-top-line" d= "M 16.5 0.0 L 16.5 0.0 L 16.5 0.0 L 16.5 17.0" stroke="black" stroke-width="2" fill="transparent"/>
<path class = "svg-bottom-line" d= "M 16.5 17.0 L 16.5 17.0 L 33.5 17.0 L 33.5 17.0" stroke="black" stroke-width="2" fill="transparent"/>
<path class = "svg-optic-line" d= "M 33.5 25.5 L 31.6 25.5 L 29.7 25.5 L 27.8 25.5 L 25.9 25.5 L 24.1 25.5 L 22.2 25.5 L 20.3 25.5 L 18.4 25.5 L 16.5 25.5" stroke="black" stroke-width="2" fill="transparent"/>
<path class = "svg-optic-line" d= "M 33.5 42.5 L 31.6 40.6 L 29.7 38.7 L 27.8 36.8 L 25.9 34.9 L 24.1 33.1 L 22.2 31.2 L 20.3 29.3 L 18.4 27.4 L 16.5 25.5" stroke="black" stroke-width="2" fill="transparent"/>
<path class = "svg-optic-line" d= "M 33.5 42.5 L 33.5 40.6 L 33.5 38.7 L 33.5 36.8 L 33.5 34.9 L 33.5 33.1 L 33.5 31.2 L 33.5 29.3 L 33.5 27.4 L 33.5 25.5" stroke="black" stroke-width="2" fill="transparent"/>
<path class = "svg-top-line" d= "M 16.5 25.5 L 16.5 25.5 L 16.5 25.5 L 33.5 25.5" stroke="black" stroke-width="2" fill="transparent"/>
<path class = "svg-bottom-line" d= "M 33.5 25.5 L 33.5 25.5 L 33.5 42.5 L 33.5 42.5" stroke="black" stroke-width="2" fill="transparent"/>
<path class = "svg-optic-line" d= "M 42.0 35.7 L 42.0 35.3 L 42.0 34.9 L 42.0 34.6 L 42.0 34.2 L 42.0 33.8 L 42.0 33.4 L 42.0 33.1 L 42.0 32.7 L 42.0 32.3" stroke="black" stroke-width="2" fill="transparent"/>
<path class = "svg-top-line" d= "M 42.0 32.3 L 42.0 32.3" stroke="black" stroke-width="2" fill="transparent"/>
<path class = "svg-bottom-line" d= "M 42.0 35.7 L 42.0 35.7" stroke="black" stroke-width="2" fill="transparent"/>
<path class = "svg-optic-line" d= "M 59.0 34.0 L 59.0 34.0 L 59.0 34.0 L 59.0 34.0 L 59.0 34.0 L 59.0 34.0 L 59.0 34.0 L 59.0 34.0 L 59.0 34.0 L 59.0 34.0" stroke="black" stroke-width="2" fill="transparent"/>
<path class = "svg-top-line" d= "M 59.0 34.0 L 59.0 34.0" stroke="black" stroke-width="2" fill="transparent"/>
<path class = "svg-bottom-line" d= "M 59.0 34.0 L 59.0 34.0" stroke="black" stroke-width="2" fill="transparent"/>
<path class = "svg-ray-line" d= "M 8.0 6.8 L 8.0 6.8 L 8.0 6.8 L 16.5 6.8 L 23.3 6.8 L 23.3 6.8 L 23.3 8.5 L 23.3 17.0 L 23.3 25.5 L 23.3 32.3 L 23.3 32.3 L 25.0 32.3 L 33.5 32.3 L 42.0 32.3 L 59.0 34.0<path class = "svg-ray-line" d= "M 8.0 8.5 L 8.0 8.5 L 8.0 8.5 L 16.5 8.5 L 25.0 8.5 L 25.0 8.5 L 25.0 8.5 L 25.0 17.0 L 25.0 25.5 L 25.0 34.0 L 25.0 34.0 L 25.0 34.0 L 33.5 34.0 L 42.0 34.0 L 59.0 34.0<path class = "svg-ray-line" d= "M 8.0 10.2 L 8.0 10.2 L 8.0 10.2 L 16.5 10.2 L 26.7 10.2 L 26.7 10.2 L 26.7 8.5 L 26.7 17.0 L 26.7 25.5 L 26.7 35.7 L 26.7 35.7 L 25.0 35.7 L 33.5 35.7 L 42.0 35.7 L 59.0 34.0" stroke="blue" stroke-width="2" fill="transparent"/>

 </svg>
